<?xml version="1.0" encoding="UTF-8"?>
<svg version="1.1" xmlns="http://www.w3.org/2000/svg" width="800" height="729">
<path d="M0 0 C264 0 528 0 800 0 C800 240.57 800 481.14 800 729 C536 729 272 729 0 729 C0 488.43 0 247.86 0 0 Z " fill="#090909" transform="translate(0,0)"/>
<path d="M0 0 C3.40951813 1.4729466 5.62070218 3.3776031 8.23022461 6.00317383 C9.05465561 6.82775589 9.87908661 7.65233795 10.72850037 8.50190735 C11.61086868 9.39459824 12.493237 10.28728912 13.40234375 11.20703125 C14.31705948 12.12457687 15.23177521 13.0421225 16.17420959 13.98747253 C18.60486405 16.42575001 21.02946043 18.86996555 23.45281982 21.31549072 C25.90701777 23.79006885 28.36680258 26.25907888 30.82617188 28.72851562 C34.43396264 32.35219777 38.0387095 35.97887716 41.64038086 39.60864258 C44.75350703 42.74593422 47.87143565 45.87810873 51 49 C59.66666667 57.66666667 68.33333333 66.33333333 77 75 C82.05968517 72.55004718 85.67667525 69.45959408 89.3125 65.1875 C91.71545217 62.36754963 94.17085961 59.89136238 97 57.5 C99.69632209 55.21611724 102.04063953 52.89312858 104.3125 50.1875 C107.97174779 45.85836703 112.13707044 42.21417872 116.36328125 38.44921875 C119.26399672 35.75477638 121.78285534 32.88986918 124.32421875 29.86328125 C126.68123508 27.24254282 129.34460888 25.05456171 132.03125 22.78125 C134.68173502 20.38319212 136.90653391 17.70186173 139.2109375 14.9765625 C141.64591755 12.28638804 144.36710638 10.01640802 147.1328125 7.67578125 C149.74410307 5.33217528 151.84376271 2.76267903 154 0 C157.49808503 0.58518061 159.17692674 1.79126005 161.68286133 4.26293945 C162.38651321 4.95067947 163.0901651 5.63841949 163.81513977 6.34700012 C164.56321396 7.09487289 165.31128815 7.84274567 166.08203125 8.61328125 C166.85560471 9.37924118 167.62917816 10.14520111 168.42619324 10.93437195 C170.05809718 12.55547274 171.68604195 14.18056739 173.31030273 15.80932617 C175.80644473 18.30644237 178.32314391 20.78147528 180.84179688 23.25585938 C182.42317392 24.8320312 184.00329603 26.40946331 185.58203125 27.98828125 C186.34022659 28.73008133 187.09842194 29.47188141 187.8795929 30.23616028 C188.56748398 30.93335678 189.25537506 31.63055328 189.96411133 32.34887695 C190.57603836 32.95874954 191.18796539 33.56862213 191.81843567 34.19697571 C193 36 193 36 192.75694656 37.9070425 C191.88483962 40.31841848 190.88287948 41.48708438 189.07041931 43.29034424 C188.44639725 43.9184903 187.82237518 44.54663635 187.17944336 45.19381714 C186.1469043 46.21017746 186.1469043 46.21017746 185.09350586 47.24707031 C184.37159561 47.96941864 183.64968536 48.69176697 182.90589905 49.43600464 C180.51592217 51.82389008 178.11549153 54.20097169 175.71484375 56.578125 C174.05652219 58.2308519 172.39886136 59.88424202 170.74183655 61.53826904 C166.37706095 65.89158576 162.00335136 70.23581874 157.62774658 74.57824707 C153.1650403 79.01027522 148.71080576 83.4507993 144.25585938 87.890625 C135.5121961 96.60210567 126.75907506 105.3040174 118 114 C122.10221199 118.89426074 126.36279068 123.49033523 130.9074707 127.97338867 C131.56998337 128.63122849 132.23249603 129.2890683 132.91508484 129.96684265 C134.34136979 131.38269384 135.76875367 132.79743873 137.19713783 134.2111721 C139.45675135 136.44863526 141.71226536 138.69015506 143.96659851 140.93293762 C150.37202426 147.3048741 156.78166663 153.67252191 163.20141602 160.0300293 C167.1374776 163.92850466 171.06624103 167.83420703 174.99037743 171.74468422 C176.48558335 173.23182893 177.98356309 174.71619012 179.48433876 176.19771385 C181.57628904 178.26326888 183.65885371 180.33786467 185.73950195 182.41479492 C186.36233063 183.02526672 186.9851593 183.63573853 187.62686157 184.26470947 C188.19172775 184.83225449 188.75659393 185.3997995 189.33857727 185.98454285 C189.83131795 186.47321933 190.32405863 186.96189581 190.83173084 187.46538067 C192.23492144 189.30858897 192.71387452 190.70704965 193 193 C191.5234375 194.96484375 191.5234375 194.96484375 189.375 196.9375 C188.68148437 197.58589844 187.98796875 198.23429688 187.2734375 198.90234375 C186.52320313 199.59457031 185.77296875 200.28679687 185 201 C183.32934303 202.66266679 181.66328289 204.32995641 180 206 C172.33333333 213.66666667 164.66666667 221.33333333 157 229 C153.42726755 227.48342243 151.15412993 225.3910776 148.43432617 222.64550781 C147.53626755 221.74407043 146.63820892 220.84263306 145.7129364 219.91387939 C144.73958723 218.92698752 143.76626536 217.94006871 142.79296875 216.953125 C141.78463692 215.93851561 140.77578344 214.92442441 139.76643372 213.91082764 C137.10985067 211.2409525 134.4588844 208.56557561 131.80950928 205.8885498 C127.58149393 201.61741905 123.34686419 197.35287552 119.10875893 193.09175873 C117.63801113 191.61089129 116.17078754 190.12659988 114.7039032 188.64190674 C109.96044513 183.86431247 105.16782764 179.31370828 100 175 C98.83757783 173.74190522 97.70406731 172.45527874 96.625 171.125 C93.38185181 167.29618171 89.78527662 164.08658837 85.99609375 160.80859375 C83.70525098 158.73293778 81.91279081 156.42286836 80 154 C78.16605179 152.39429426 76.29748415 150.85030775 74.390625 149.33203125 C73.93171875 148.89246094 73.4728125 148.45289063 73 148 C73 147.34 73 146.68 73 146 C72.360625 145.731875 71.72125 145.46375 71.0625 145.1875 C69 144 69 144 68 141 C67.443125 140.731875 66.88625 140.46375 66.3125 140.1875 C62.96235837 138.467157 60.37574493 135.91424712 58 133 C58 132.34 58 131.68 58 131 C57.1646875 130.6596875 57.1646875 130.6596875 56.3125 130.3125 C52.1037471 127.92374836 49.18479983 124.24077001 46.125 120.5625 C43.46986992 117.39570423 40.5584809 114.82001196 37.3203125 112.26171875 C36.88460937 111.84535156 36.44890625 111.42898438 36 111 C36 110.34 36 109.68 36 109 C35.44183594 108.76925781 34.88367188 108.53851563 34.30859375 108.30078125 C31.38710799 106.65466491 29.39945334 104.58926868 27.0625 102.1875 C26.22847656 101.33542969 25.39445312 100.48335938 24.53515625 99.60546875 C23.28025391 98.31576172 23.28025391 98.31576172 22 97 C20.33491575 95.33175242 18.6680302 93.66530202 17 92 C-1 74 -19 56 -37 38 C-35.5642576 34.98299881 -34.35984382 33.22279814 -31.75 31.12109375 C-25.11734353 25.50642411 -19.11857194 19.22361776 -13 13.0625 C-11.7359115 11.79338627 -10.47159044 10.52450411 -9.20703125 9.25585938 C-6.13533276 6.1732368 -3.06679992 3.08749572 0 0 Z " fill="#C5FC02" transform="translate(355,216)"/>
<path d="M0 0 C1.12868808 0.94638038 2.25442442 1.89628186 3.37890625 2.84765625 C4.00611572 3.37625244 4.6333252 3.90484863 5.27954102 4.44946289 C7 6 7 6 8.9375 8.4375 C10.78942992 10.73838262 12.57146304 12.41491698 14.8125 14.3125 C17.63245037 16.71545217 20.10863762 19.17085961 22.5 22 C25.4186998 25.44273908 28.56845107 28.34344662 32 31.265625 C34.06462111 33.05603862 36.04417814 34.90399642 38 36.8125 C38.5775 37.37582031 39.155 37.93914062 39.75 38.51953125 C41 40 41 40 41 42 C41.53753906 42.21011719 42.07507813 42.42023438 42.62890625 42.63671875 C45.90338288 44.51940795 48.3317159 47.12213364 50.9375 49.8125 C51.44990234 50.33392578 51.96230469 50.85535156 52.49023438 51.39257812 C53.46063065 52.38023685 54.42893707 53.36995727 55.39428711 54.36254883 C59.302663 58.34817709 63.27369219 62.27270596 67.22372437 66.21699524 C68.26584675 67.25765178 69.30796593 68.29831153 70.3500824 69.338974 C70.90082365 69.8889398 71.4515649 70.4389056 72.01899529 71.00553703 C84.73500394 83.70381022 97.44810813 96.40498801 110.1595974 109.10778522 C117.50347806 116.44650846 124.84829781 123.78428726 132.1953125 131.11987305 C138.61665157 137.53122848 145.03621618 143.9443545 151.45367873 150.35959023 C154.84570367 153.75031546 158.238593 157.14016516 161.6336174 160.52788734 C164.82870486 163.71615693 168.02140421 166.90679894 171.21233559 170.09922791 C172.3792371 171.26585578 173.54698669 172.43163613 174.71567726 173.59647179 C178.16974371 177.03970846 181.59918913 180.50409729 185 184 C185.76918385 184.78716085 186.53836769 185.57432171 187.33086014 186.38533592 C187.98493221 187.08564745 188.63900429 187.78595898 189.31289673 188.50749207 C190.14232253 189.38758832 190.14232253 189.38758832 190.98850441 190.28546429 C192 192 192 192 191.81627464 194.04767323 C190.47352355 197.25920128 187.94642509 199.43788556 185.49609375 201.83203125 C184.93938492 202.38686691 184.38267609 202.94170258 183.80909729 203.51335144 C182.62809472 204.68763445 181.44350125 205.85831542 180.25561523 207.02563477 C178.46157827 208.78883559 176.67812804 210.56217671 174.89648438 212.33789062 C170.13610201 217.06792182 165.34624326 221.77725058 160.41015625 226.32421875 C159.83531494 226.85490967 159.26047363 227.38560059 158.66821289 227.93237305 C157 229 157 229 153 229 C151.35212326 227.84431458 151.35212326 227.84431458 149.70965576 226.19067383 C148.76743668 225.25670273 148.76743668 225.25670273 147.80618286 224.30386353 C147.12860931 223.61190887 146.45103577 222.91995422 145.75292969 222.20703125 C145.03058136 221.48526703 144.30823303 220.76350281 143.56399536 220.01986694 C141.1736885 217.62676866 138.79786796 215.21980362 136.421875 212.8125 C134.76936618 211.15253262 133.11597326 209.49344495 131.46173096 207.83520508 C127.10618371 203.46437149 122.76278033 199.08165953 118.42175293 194.69641113 C113.99153136 190.22530206 109.54999148 185.76546847 105.109375 181.3046875 C96.39510148 172.54749008 87.69360876 163.77770908 79 155 C76.07505199 156.31956667 74.02166276 157.73608615 71.77453613 160.01860046 C71.16058487 160.6370282 70.54663361 161.25545593 69.91407776 161.8926239 C69.25213913 162.56960831 68.5902005 163.24659271 67.90820312 163.9440918 C67.20203354 164.65800079 66.49586395 165.37190979 65.76829529 166.10745239 C64.23674884 167.65664379 62.70741505 169.20802506 61.18003845 170.76132774 C58.76480922 173.21592754 56.34216812 175.6629728 53.91711426 178.10786438 C47.02365053 185.05943198 40.13996907 192.02056669 33.27099609 198.99633789 C29.06895384 203.26264699 24.85495145 207.51682299 20.63304138 211.76346779 C19.02396999 213.38684151 17.41959393 215.01488273 15.81996155 216.64755821 C13.58846643 218.92451819 11.34216863 221.18580914 9.09179688 223.4440918 C8.42985825 224.1271489 7.76791962 224.81020599 7.08592224 225.51396179 C6.47197098 226.12393005 5.85801971 226.73389832 5.22546387 227.36235046 C4.43129688 228.16732735 4.43129688 228.16732735 3.62108612 228.9885664 C2 230 2 230 -0.0884819 229.75541496 C-2.51218163 228.79759037 -3.83486498 227.52562562 -5.66699219 225.67358398 C-6.36741638 224.9729332 -7.06784058 224.27228241 -7.78948975 223.55039978 C-8.53442688 222.78997879 -9.27936401 222.0295578 -10.046875 221.24609375 C-10.81807678 220.47064713 -11.58927856 219.6952005 -12.3838501 218.89625549 C-14.8463571 216.41695059 -17.29823134 213.92742008 -19.75 211.4375 C-21.41727909 209.7551756 -23.08523969 208.07352633 -24.75390625 206.39257812 C-28.84387902 202.26952125 -32.92516921 198.13801942 -37 194 C-35.44938843 190.72724339 -33.80329895 188.58827146 -31.1875 186.0625 C-30.52105469 185.41410156 -29.85460937 184.76570312 -29.16796875 184.09765625 C-28.09482422 183.05931641 -28.09482422 183.05931641 -27 182 C-25.33056709 180.33610418 -23.66420665 178.66912306 -22 177 C-20.94808405 175.94774931 -19.89599172 174.89567492 -18.84375 173.84375 C-18.29589844 173.29589844 -17.74804688 172.74804688 -17.18359375 172.18359375 C-12.15625 167.15625 -12.15625 167.15625 -10.53076172 165.53100586 C-9.15794622 164.15797141 -7.78595092 162.78411701 -6.4140625 161.41015625 C-4.75776227 159.75653612 -3.09600477 158.10836945 -1.4296875 156.46484375 C-0.58664062 155.63082031 0.25640625 154.79679688 1.125 153.9375 C2.39730469 152.68259766 2.39730469 152.68259766 3.6953125 151.40234375 C6.00297572 149.10528998 6.00297572 149.10528998 7.6796875 146.69140625 C8.11539063 146.13324219 8.55109375 145.57507813 9 145 C9.66 145 10.32 145 11 145 C11.33 144.01 11.66 143.02 12 142 C13.6015625 140.45703125 13.6015625 140.45703125 15.625 138.8125 C18.4714611 136.40512067 20.98055346 133.98123266 23.375 131.125 C26.85848851 126.98029377 30.82110389 123.55508495 34.9609375 120.078125 C37.12116458 117.87651426 37.70709992 117.01152646 38 114 C36.97435329 112.23387881 36.97435329 112.23387881 35.27296448 110.67169189 C34.64327759 110.03513168 34.0135907 109.39857147 33.36482239 108.74272156 C32.65992172 108.05579727 31.95502106 107.36887299 31.22875977 106.66113281 C30.497388 105.92903091 29.76601624 105.19692902 29.01248169 104.44264221 C26.5837835 102.01743698 24.13783379 99.61043397 21.69140625 97.203125 C20.00737326 95.52841393 18.32443832 93.85259803 16.64256287 92.17572021 C12.20647909 87.75875455 7.75558645 83.35700596 3.30151367 78.95819092 C-1.23831485 74.46945014 -5.76407444 69.96657465 -10.29101562 65.46484375 C-19.18024392 56.6292882 -28.08470174 47.80924557 -37 39 C-35.51558828 35.89449692 -34.01111683 33.76643254 -31.56005859 31.33300781 C-30.85948334 30.63258362 -30.15890808 29.93215942 -29.43710327 29.21051025 C-28.68184357 28.46557312 -27.92658386 27.72063599 -27.1484375 26.953125 C-26.37440582 26.18192322 -25.60037415 25.41072144 -24.80288696 24.6161499 C-22.33158077 22.15603144 -19.85340817 19.70296152 -17.375 17.25 C-15.69745948 15.58249106 -14.02037055 13.91452768 -12.34375 12.24609375 C-8.23439081 8.1587763 -4.11937353 4.07722304 0 0 Z " fill="#C5FC01" transform="translate(280,291)"/>
<path d="M0 0 C6.460199 -0.36567164 6.460199 -0.36567164 8.9375 1.3125 C10 3 10 3 10 6 C11.32 6 12.64 6 14 6 C14.12375 7.175625 14.12375 7.175625 14.25 8.375 C14.72806339 11.14749104 14.72806339 11.14749104 17.0625 12.3125 C17.701875 12.539375 18.34125 12.76625 19 13 C19 13.66 19 14.32 19 15 C19.5775 15.12375 20.155 15.2475 20.75 15.375 C23.02335767 16.00648824 24.9253529 16.88858191 27 18 C27 19.32 27 20.64 27 22 C27.66 22 28.32 22 29 22 C29 22.66 29 23.32 29 24 C29.66 24 30.32 24 31 24 C31 24.99 31 25.98 31 27 C31.7425 27.0825 32.485 27.165 33.25 27.25 C36.56331349 28.15363095 37.88115832 29.33182899 40 32 C40 32.99 40 33.98 40 35 C42.33214148 36.20628008 44.49642139 37.1654738 47 38 C47 39.65 47 41.3 47 43 C47.804375 43.2475 48.60875 43.495 49.4375 43.75 C52 45 52 45 52.8125 47.125 C52.874375 47.74375 52.93625 48.3625 53 49 C55.97 49.495 55.97 49.495 59 50 C59 51.32 59 52.64 59 54 C59.556875 54.061875 60.11375 54.12375 60.6875 54.1875 C64.01529218 55.35672428 65.73133832 57.35322804 68 60 C68 60.99 68 61.98 68 63 C68.66 63 69.32 63 70 63 C70.33 64.65 70.66 66.3 71 68 C66.36145443 64.12207556 61.95753022 60.09963668 57.69750977 55.81103516 C57.11127335 55.22494476 56.52503693 54.63885437 55.92103577 54.03500366 C54.00877556 52.12205396 52.10006914 50.20560087 50.19140625 48.2890625 C48.85641541 46.95220405 47.52120173 45.61556808 46.18577576 44.27914429 C42.69016983 40.77974021 39.19757886 37.2773423 35.70562744 33.77429199 C32.1343593 30.19275135 28.56021998 26.61407844 24.98632812 23.03515625 C17.98808759 16.0262261 10.99303185 9.01412676 4 2 C0.59787701 3.61382757 -2.10324519 5.58603766 -5 8 C-5 6.68 -5 5.36 -5 4 C-4.01 4 -3.02 4 -2 4 C-1.34 2.68 -0.68 1.36 0 0 Z " fill="#C1E838" transform="translate(355,444)"/>
<path d="M0 0 C1.12214056 0.94121709 2.24136981 1.88590576 3.359375 2.83203125 C3.98295898 3.35772705 4.60654297 3.88342285 5.24902344 4.42504883 C7.4589205 6.4127853 9.20940988 8.63386306 11 11 C11.98230498 12.0173873 12.97469597 13.02596117 14 14 C13.34 14.33 12.68 14.66 12 15 C12 14.34 12 13.68 12 13 C11.01 12.67 10.02 12.34 9 12 C8.319375 11.2884375 8.319375 11.2884375 7.625 10.5625 C5.61423786 8.62907486 3.60947795 7.9168436 1 7 C0.2575 7.61875 -0.485 8.2375 -1.25 8.875 C-3.50070477 10.61418096 -5.4906219 11.74531095 -8 13 C-8.33 13.66 -8.66 14.32 -9 15 C-10.32 15 -11.64 15 -13 15 C-13.2475 15.7425 -13.495 16.485 -13.75 17.25 C-15.10465039 20.23023087 -16.5101541 21.89919252 -19 24 C-19.66 24 -20.32 24 -21 24 C-21.66 25.32 -22.32 26.64 -23 28 C-23.66 28 -24.32 28 -25 28 C-25.268125 28.804375 -25.53625 29.60875 -25.8125 30.4375 C-26.204375 31.283125 -26.59625 32.12875 -27 33 C-28.485 33.495 -28.485 33.495 -30 34 C-30 34.99 -30 35.98 -30 37 C-30.99 37 -31.98 37 -33 37 C-33 37.99 -33 38.98 -33 40 C-32.401875 40.2475 -31.80375 40.495 -31.1875 40.75 C-28.70245261 42.17002708 -27.68637514 43.72705959 -26 46 C-25.01 46.33 -24.02 46.66 -23 47 C-23 47.66 -23 48.32 -23 49 C-22.01 49.33 -21.02 49.66 -20 50 C-18.578125 51.5234375 -18.578125 51.5234375 -17.25 53.375 C-16.57710938 54.28378906 -16.57710938 54.28378906 -15.890625 55.2109375 C-15 57 -15 57 -16 60 C-22.93 53.07 -29.86 46.14 -37 39 C-35.2792531 35.55850619 -34.18218285 33.93626787 -31.56005859 31.33300781 C-30.85948334 30.63258362 -30.15890808 29.93215942 -29.43710327 29.21051025 C-28.68184357 28.46557312 -27.92658386 27.72063599 -27.1484375 26.953125 C-26.37440582 26.18192322 -25.60037415 25.41072144 -24.80288696 24.6161499 C-22.33158077 22.15603144 -19.85340817 19.70296152 -17.375 17.25 C-15.69745948 15.58249106 -14.02037055 13.91452768 -12.34375 12.24609375 C-8.23439081 8.1587763 -4.11937353 4.07722304 0 0 Z " fill="#C3EA31" transform="translate(280,291)"/>
<path d="M0 0 C3.30118794 0.5805321 4.91134076 1.54868099 7.234375 3.94140625 C7.80800781 4.52470703 8.38164063 5.10800781 8.97265625 5.70898438 C9.55917969 6.32064453 10.14570312 6.93230469 10.75 7.5625 C11.35199219 8.17802734 11.95398438 8.79355469 12.57421875 9.42773438 C14.05634381 10.94514813 15.5290967 12.47170596 17 14 C14 15 14 15 11.375 14.3125 C9 13 9 13 8.1875 10.875 C8.125625 10.25625 8.06375 9.6375 8 9 C7.34 9 6.68 9 6 9 C6 7.68 6 6.36 6 5 C3.1607636 4.45631643 1.74558465 4.26583268 -1 5 C-6.18599124 9.03753643 -10.28442321 14.27268388 -14.4609375 19.3125 C-16.24102926 21.26427573 -18.16900922 22.92212778 -20.1875 24.625 C-23.21464086 27.19348315 -25.06937411 29.50648649 -27 33 C-29.38589329 35.63703996 -31.4895934 37.70122541 -34.5625 39.5 C-37.45817784 41.28195559 -38.94615841 43.30433291 -41 46 C-42.66666667 47.66666667 -44.33333333 49.33333333 -46 51 C-46.33 51.66 -46.66 52.32 -47 53 C-47.61875 53.268125 -48.2375 53.53625 -48.875 53.8125 C-51.21543541 54.88914044 -51.21543541 54.88914044 -52.5 57.5 C-54.12599891 60.20999819 -55.01511225 61.06722258 -58 62 C-58.99 61.67 -59.98 61.34 -61 61 C-60.50371094 60.5875 -60.00742187 60.175 -59.49609375 59.75 C-55.9616883 56.74542004 -52.6723458 53.74468274 -49.6875 50.1875 C-46.02825221 45.85836703 -41.86292956 42.21417872 -37.63671875 38.44921875 C-34.73600328 35.75477638 -32.21714466 32.88986918 -29.67578125 29.86328125 C-27.31876492 27.24254282 -24.65539112 25.05456171 -21.96875 22.78125 C-19.31826498 20.38319212 -17.09346609 17.70186173 -14.7890625 14.9765625 C-12.35408245 12.28638804 -9.63289362 10.01640802 -6.8671875 7.67578125 C-4.25589693 5.33217528 -2.15623729 2.76267903 0 0 Z " fill="#C1E638" transform="translate(509,216)"/>
<path d="M0 0 C0.33 0.66 0.66 1.32 1 2 C0.67 2.99 0.34 3.98 0 5 C-0.66 5 -1.32 5 -2 5 C-2.103125 5.53625 -2.20625 6.0725 -2.3125 6.625 C-3.20788159 9.7181364 -4.32234096 12.24384586 -6 15 C-8.5625 16.25 -8.5625 16.25 -11 17 C-11.66 17.66 -12.32 18.32 -13 19 C-13.99 19 -14.98 19 -16 19 C-16.103125 19.763125 -16.20625 20.52625 -16.3125 21.3125 C-17.04711194 24.18416484 -17.6716065 25.23042094 -20 27 C-20.66 27 -21.32 27 -22 27 C-21.34 29.64 -20.68 32.28 -20 35 C-19.34 35 -18.68 35 -18 35 C-18 35.99 -18 36.98 -18 38 C-16.68 38.33 -15.36 38.66 -14 39 C-14 40.65 -14 42.3 -14 44 C-19.29012124 39.59156563 -24.18808428 34.92440206 -29 30 C-27.62977677 26.83521254 -26.16082931 25.04358182 -23.5 22.87109375 C-18.38593067 18.54193696 -13.71169201 13.82123655 -9 9.0625 C-8.12988281 8.18787109 -7.25976562 7.31324219 -6.36328125 6.41210938 C-4.23986451 4.27702551 -2.11883622 2.13962795 0 0 Z " fill="#CAF912" transform="translate(347,224)"/>
<path d="M0 0 C4.710805 3.38211641 4.710805 3.38211641 5.88671875 5.89453125 C6 8 6 8 4.5234375 9.96484375 C3.81445312 10.61582031 3.10546875 11.26679688 2.375 11.9375 C1.68148437 12.58589844 0.98796875 13.23429687 0.2734375 13.90234375 C-0.47679687 14.59457031 -1.22703125 15.28679687 -2 16 C-3.67065697 17.66266679 -5.33671711 19.32995641 -7 21 C-14.66666667 28.66666667 -22.33333333 36.33333333 -30 44 C-34.25509871 41.9792094 -36.10732846 39.69619142 -39 36 C-35.66666667 37.33333333 -32.33333333 38.66666667 -29 40 C-29 39.01 -29 38.02 -29 37 C-28.34 37 -27.68 37 -27 37 C-26.938125 36.38125 -26.87625 35.7625 -26.8125 35.125 C-26.544375 34.42375 -26.27625 33.7225 -26 33 C-25.175 32.71125 -24.35 32.4225 -23.5 32.125 C-22.675 31.75375 -21.85 31.3825 -21 31 C-20.10169161 27.94727535 -20.10169161 27.94727535 -20 25 C-18.68 25 -17.36 25 -16 25 C-14.3553326 22.53673288 -14.3553326 22.53673288 -13 20 C-12.34 20 -11.68 20 -11 20 C-11 19.34 -11 18.68 -11 18 C-10.34 18 -9.68 18 -9 18 C-8.67 17.01 -8.34 16.02 -8 15 C-6.515 15.495 -6.515 15.495 -5 16 C-4.67 14.35 -4.34 12.7 -4 11 C-2.68 11 -1.36 11 0 11 C1.05404945 7.01803543 0.84098656 4.01804691 0 0 Z " fill="#C3E53F" transform="translate(542,401)"/>
<path d="M0 0 C0 3 0 3 -1.93359375 5.15625 C-2.75988281 5.9296875 -3.58617187 6.703125 -4.4375 7.5 C-7.9948738 10.73958021 -7.9948738 10.73958021 -10 15 C-11.62748024 16.38089233 -13.30556653 17.70213607 -15 19 C-17.0242037 20.79125962 -19.03297969 22.59822713 -21.03515625 24.4140625 C-23 26 -23 26 -25.1875 27.02734375 C-27.34859452 27.91640326 -27.34859452 27.91640326 -27.9375 30.9375 C-29.28297267 34.8156271 -30.51162056 34.98449188 -34 37 C-37.03559354 40.10505792 -39.7726943 43.46989447 -42.48828125 46.85546875 C-43.6239354 48.2658239 -44.80761343 49.63727249 -46 51 C-46.66 51 -47.32 51 -48 51 C-48 51.66 -48 52.32 -48 53 C-48.72574219 53.42796875 -49.45148438 53.8559375 -50.19921875 54.296875 C-53.40090273 56.24378464 -55.36585497 58.41995502 -57.8125 61.25 C-61.4327413 65.33963175 -65.12886389 68.9880638 -69.3046875 72.49609375 C-71.50405886 74.44714899 -73.27397894 76.62672104 -75 79 C-75 75 -75 75 -73.20703125 72.81640625 C-72.02173828 71.70072266 -72.02173828 71.70072266 -70.8125 70.5625 C-70.03519531 69.82128906 -69.25789062 69.08007812 -68.45703125 68.31640625 C-67.64621094 67.55199219 -66.83539063 66.78757812 -66 66 C-64.32788675 64.33879777 -62.66167668 62.67164176 -61 61 C-59.94825194 59.9475815 -58.89614965 58.89551692 -57.84375 57.84375 C-57.29589844 57.29589844 -56.74804688 56.74804688 -56.18359375 56.18359375 C-51.15625 51.15625 -51.15625 51.15625 -49.53076172 49.53100586 C-48.15794622 48.15797141 -46.78595092 46.78411701 -45.4140625 45.41015625 C-43.75776227 43.75653612 -42.09600477 42.10836945 -40.4296875 40.46484375 C-39.58664062 39.63082031 -38.74359375 38.79679687 -37.875 37.9375 C-37.02679688 37.10089844 -36.17859375 36.26429688 -35.3046875 35.40234375 C-32.99702428 33.10528998 -32.99702428 33.10528998 -31.3203125 30.69140625 C-30.88460937 30.13324219 -30.44890625 29.57507813 -30 29 C-29.34 29 -28.68 29 -28 29 C-27.505 27.515 -27.505 27.515 -27 26 C-25.3984375 24.45703125 -25.3984375 24.45703125 -23.375 22.8125 C-20.5285389 20.40512067 -18.01944654 17.98123266 -15.625 15.125 C-12.12608433 10.98771403 -8.20159358 7.4559184 -4.13671875 3.8828125 C-2.71781641 2.6325183 -1.33725828 1.33725828 0 0 Z " fill="#C0E047" transform="translate(319,407)"/>
<path d="M0 0 C0.99 0.33 1.98 0.66 3 1 C-2.13151012 6.24725729 -7.2763777 11.48101843 -12.43880844 16.6978693 C-14.83541871 19.12059605 -17.22714919 21.54776171 -19.60839844 23.9855957 C-22.34490315 26.78671672 -25.10145099 29.56761482 -27.859375 32.34765625 C-28.71368103 33.22776871 -29.56798706 34.10788116 -30.44818115 35.0146637 C-31.24870911 35.81556931 -32.04923706 36.61647491 -32.87402344 37.44165039 C-33.92659332 38.51087486 -33.92659332 38.51087486 -35.00042725 39.60169983 C-37 41 -37 41 -39.1104126 40.85154724 C-41.90975016 39.59001884 -43.63712892 37.64358598 -45.75 35.4375 C-46.54921875 34.61121094 -47.3484375 33.78492188 -48.171875 32.93359375 C-48.77515625 32.29550781 -49.3784375 31.65742188 -50 31 C-49.34 30.67 -48.68 30.34 -48 30 C-47.278125 30.639375 -46.55625 31.27875 -45.8125 31.9375 C-42.94368387 34.0412985 -41.49382872 34.73796285 -38 35 C-35.27497035 34.62277985 -35.27497035 34.62277985 -33 34 C-33 33.34 -33 32.68 -33 32 C-32.34 32 -31.68 32 -31 32 C-31 31.01 -31 30.02 -31 29 C-30.34 29 -29.68 29 -29 29 C-28.90138672 28.11828125 -28.90138672 28.11828125 -28.80078125 27.21875 C-27.68005882 24.11352884 -25.93448568 23.26965402 -23.1875 21.5 C-20.45184527 19.72202647 -18.10177121 18.10267504 -15.80078125 15.78125 C-14 14 -14 14 -12 14 C-11.87625 13.21625 -11.7525 12.4325 -11.625 11.625 C-11 9 -11 9 -9 7 C-8.01 7 -7.02 7 -6 7 C-5.67 6.01 -5.34 5.02 -5 4 C-4.34 4 -3.68 4 -3 4 C-3 3.34 -3 2.68 -3 2 C-2.01 1.34 -1.02 0.68 0 0 Z " fill="#B9DB37" transform="translate(319,480)"/>
<path d="M0 0 C3.31613882 1.44580966 5.49185728 3.24829792 8.03417969 5.80712891 C9.20494049 6.9781163 9.20494049 6.9781163 10.39935303 8.17276001 C11.23178528 9.01551483 12.06421753 9.85826965 12.921875 10.7265625 C13.78186096 11.58937836 14.64184692 12.45219421 15.52789307 13.34115601 C18.2733231 16.09778029 21.0117169 18.86127799 23.75 21.625 C25.61021783 23.49524857 27.47088946 25.36504589 29.33203125 27.234375 C33.89329945 31.8176936 38.44881011 36.40667478 43 41 C40 42 40 42 37.3125 40.75 C36.549375 40.1725 35.78625 39.595 35 39 C35 38.01 35 37.02 35 36 C34.4225 35.7525 33.845 35.505 33.25 35.25 C30.65624685 33.80902603 29.03447778 32.15777947 27 30 C26.175 29.21625 25.35 28.4325 24.5 27.625 C22 25 22 25 20 21.875 C17.87621762 18.82206283 16.18268032 17.79535813 13 16 C11.98758315 14.67607028 10.98560611 13.34400833 10 12 C9.01 11.67 8.02 11.34 7 11 C3 6.54285714 3 6.54285714 3 4 C1.35 4.33 -0.3 4.66 -2 5 C-2 5.66 -2 6.32 -2 7 C-3.65 7.33 -5.3 7.66 -7 8 C-6.02133662 6.85373678 -5.04205413 5.70800212 -4.0625 4.5625 C-3.51722656 3.92441406 -2.97195313 3.28632813 -2.41015625 2.62890625 C-1.63204305 1.73008851 -0.84063472 0.84063472 0 0 Z " fill="#C5EA3E" transform="translate(355,216)"/>
<path d="M0 0 C4.67036129 3.73628903 8.88782373 7.79223461 13 12.125 C13.5050708 12.6396582 14.0101416 13.15431641 14.53051758 13.68457031 C17.94852185 17.3546398 17.94852185 17.3546398 18.16015625 20.0078125 C16.39139586 23.04507782 13.96220451 25.34822118 11.4375 27.75 C10.91736328 28.25660156 10.39722656 28.76320313 9.86132812 29.28515625 C8.58089916 30.53034405 7.29132446 31.76611502 6 33 C5.67 31.68 5.34 30.36 5 29 C5.66 29 6.32 29 7 29 C7.2475 28.05125 7.495 27.1025 7.75 26.125 C9 23 9 23 11.125 21.625 C11.74375 21.41875 12.3625 21.2125 13 21 C11.61940939 16.85822818 8.92296906 14.84605497 5.75 11.9375 C4 10 4 10 4 7 C3.01 7 2.02 7 1 7 C0.67 4.69 0.34 2.38 0 0 Z " fill="#C8F321" transform="translate(454,465)"/>
<path d="M0 0 C0.99 0.33 1.98 0.66 3 1 C-1.30150522 6.13812825 -5.80662025 10.9538552 -10.55078125 15.68359375 C-11.25019333 16.38396255 -11.94960541 17.08433136 -12.67021179 17.80592346 C-14.13544009 19.27182762 -15.60191334 20.73648839 -17.06958008 22.19995117 C-19.32685682 24.45182244 -21.57868445 26.7090454 -23.83007812 28.96679688 C-25.25749154 30.39355035 -26.68521465 31.81999406 -28.11328125 33.24609375 C-28.78925858 33.92409531 -29.4652359 34.60209686 -30.16169739 35.30064392 C-30.78291977 35.91871414 -31.40414215 36.53678436 -32.04418945 37.17358398 C-32.59234818 37.72094711 -33.1405069 38.26831024 -33.70527649 38.83226013 C-35 40 -35 40 -36 40 C-36.1875 37.125 -36.1875 37.125 -36 34 C-33 32 -33 32 -29 32 C-27.58622659 29.36095629 -26.62759865 26.92879371 -26 24 C-24.35 23.67 -22.7 23.34 -21 23 C-21 22.01 -21 21.02 -21 20 C-20.01 20 -19.02 20 -18 20 C-18 19.01 -18 18.02 -18 17 C-16.35 16.67 -14.7 16.34 -13 16 C-13 15.34 -13 14.68 -13 14 C-12.34 14 -11.68 14 -11 14 C-11 13.01 -11 12.02 -11 11 C-6.65714286 7 -6.65714286 7 -4 7 C-4 6.34 -4 5.68 -4 5 C-3.34 5 -2.68 5 -2 5 C-2 4.01 -2 3.02 -2 2 C-1.34 2 -0.68 2 0 2 C0 1.34 0 0.68 0 0 Z " fill="#BEE236" transform="translate(517,281)"/>
<path d="M0 0 C6.74080425 5.52650334 12.8071129 11.69449559 18.9375 17.875 C20.01343727 18.95596274 21.08960731 20.03669383 22.16601562 21.1171875 C24.78003292 23.74212641 27.39088596 26.37018628 30 29 C27 30 27 30 24.3125 28.8125 C23.1678125 27.9153125 23.1678125 27.9153125 22 27 C22 25.68 22 24.36 22 23 C20.89591797 22.85884766 20.89591797 22.85884766 19.76953125 22.71484375 C16.59191836 21.89467004 15.10338515 20.75090067 12.6875 18.5625 C11.99011719 17.94503906 11.29273438 17.32757813 10.57421875 16.69140625 C9 15 9 15 9 13 C8.34 13 7.68 13 7 13 C6.731875 12.195625 6.46375 11.39125 6.1875 10.5625 C5.795625 9.716875 5.40375 8.87125 5 8 C4.01 7.67 3.02 7.34 2 7 C0.35179805 4.39757586 0 3.13751221 0 0 Z " fill="#C9F61F" transform="translate(489,348)"/>
<path d="M0 0 C1 3 1 3 1 5 C1.5775 5.28875 2.155 5.5775 2.75 5.875 C3.86375 6.431875 3.86375 6.431875 5 7 C5.639375 7.268125 6.27875 7.53625 6.9375 7.8125 C9.75670752 9.43568009 11.73933301 11.67984177 14 14 C14.66 14.33 15.32 14.66 16 15 C16 15.99 16 16.98 16 18 C16.66 18 17.32 18 18 18 C18 18.66 18 19.32 18 20 C18.66 20 19.32 20 20 20 C20 20.66 20 21.32 20 22 C20.66 22 21.32 22 22 22 C22 22.66 22 23.32 22 24 C22.66 24 23.32 24 24 24 C24.66 24.99 25.32 25.98 26 27 C25.67 28.32 25.34 29.64 25 31 C15.76 21.76 6.52 12.52 -3 3 C-2.01 2.01 -1.02 1.02 0 0 Z " fill="#B4D832" transform="translate(347,277)"/>
<path d="M0 0 C0.66 0 1.32 0 2 0 C2.66772461 1.79956055 2.66772461 1.79956055 3 4 C1.95532227 5.62817383 1.95532227 5.62817383 0.31640625 7.20703125 C-0.2780127 7.79081543 -0.87243164 8.37459961 -1.48486328 8.97607422 C-2.1292334 9.58209473 -2.77360352 10.18811523 -3.4375 10.8125 C-4.08187012 11.43398926 -4.72624023 12.05547852 -5.39013672 12.69580078 C-7.2476077 14.47760913 -9.12178071 16.24011847 -11 18 C-11.84949219 18.81597656 -12.69898438 19.63195312 -13.57421875 20.47265625 C-18.45482546 25 -18.45482546 25 -23 25 C-24.921875 23.46875 -24.921875 23.46875 -26.75 21.5 C-27.36359375 20.8503125 -27.9771875 20.200625 -28.609375 19.53125 C-29.06828125 19.0259375 -29.5271875 18.520625 -30 18 C-28.68 17.67 -27.36 17.34 -26 17 C-25.34 18.65 -24.68 20.3 -24 22 C-22.02 22 -20.04 22 -18 22 C-18 20.68 -18 19.36 -18 18 C-17.01 18 -16.02 18 -15 18 C-14.67 17.01 -14.34 16.02 -14 15 C-13.01 15 -12.02 15 -11 15 C-11 14.01 -11 13.02 -11 12 C-10.34 12 -9.68 12 -9 12 C-8.67 11.01 -8.34 10.02 -8 9 C-6.68 9 -5.36 9 -4 9 C-3.67 7.35 -3.34 5.7 -3 4 C-2.01 4 -1.02 4 0 4 C0 2.68 0 1.36 0 0 Z " fill="#B0D238" transform="translate(456,495)"/>
<path d="M0 0 C1.7074998 1.28062485 3.37373596 2.61767557 5 4 C5 4.66 5 5.32 5 6 C5.53753906 6.21011719 6.07507813 6.42023438 6.62890625 6.63671875 C9.90338288 8.51940795 12.3317159 11.12213364 14.9375 13.8125 C15.44990234 14.33392578 15.96230469 14.85535156 16.49023438 15.39257812 C17.50757793 16.42801928 18.52243239 17.46591245 19.53466797 18.50634766 C20.92321077 19.92172667 22.33789192 21.31132385 23.75390625 22.69921875 C26 25 26 25 28 28 C25 28 25 28 22 27 C22 26.34 22 25.68 22 25 C21.01 25 20.02 25 19 25 C18.7525 24.195625 18.505 23.39125 18.25 22.5625 C17.27761141 19.828919 17.27761141 19.828919 14.875 19.1875 C13.946875 19.0946875 13.946875 19.0946875 13 19 C12.67 17.35 12.34 15.7 12 14 C11.01 14 10.02 14 9 14 C8.608125 13.05125 8.21625 12.1025 7.8125 11.125 C6.32776313 7.80936152 6.32776313 7.80936152 3.375 7 C2.59125 6.67 1.8075 6.34 1 6 C0.1875 2.875 0.1875 2.875 0 0 Z " fill="#B9DD34" transform="translate(316,327)"/>
<path d="M0 0 C2.31 0.66 4.62 1.32 7 2 C7.33 3.65 7.66 5.3 8 7 C9.65 7.33 11.3 7.66 13 8 C13 8.99 13 9.98 13 11 C15.97 11.495 15.97 11.495 19 12 C19.33 12.99 19.66 13.98 20 15 C20.66 15.33 21.32 15.66 22 16 C22.309375 16.78375 22.61875 17.5675 22.9375 18.375 C23.99679491 20.99208154 25.0051043 22.09578138 27 24 C27 24.66 27 25.32 27 26 C27.66 26 28.32 26 29 26 C28.67 26.66 28.34 27.32 28 28 C26.8274869 27.04882866 25.66212985 26.08882991 24.5 25.125 C23.52546875 24.32449219 23.52546875 24.32449219 22.53125 23.5078125 C22.0259375 23.01023437 21.520625 22.51265625 21 22 C21 21.34 21 20.68 21 20 C20.360625 19.731875 19.72125 19.46375 19.0625 19.1875 C17 18 17 18 16 15 C15.443125 14.731875 14.88625 14.46375 14.3125 14.1875 C10.96235837 12.467157 8.37574493 9.91424712 6 7 C6 6.34 6 5.68 6 5 C5.38125 4.731875 4.7625 4.46375 4.125 4.1875 C2 3 2 3 0 0 Z " fill="#BCE42C" transform="translate(407,342)"/>
<path d="M0 0 C0 4.39895123 -2.79621101 6.36507664 -5.6875 9.375 C-6.48317383 10.22191406 -6.48317383 10.22191406 -7.29492188 11.0859375 C-9.75355442 13.69238967 -12.24455206 16.2380986 -14.8125 18.73828125 C-17.07842973 21.08109074 -18.03090391 22.91651245 -19 26 C-18.34 26 -17.68 26 -17 26 C-17 27.32 -17 28.64 -17 30 C-16.34 30 -15.68 30 -15 30 C-14.34 30.99 -13.68 31.98 -13 33 C-13.33 33.99 -13.66 34.98 -14 36 C-15.53839266 34.62354341 -17.05530581 33.22304968 -18.5625 31.8125 C-19.40941406 31.03519531 -20.25632813 30.25789063 -21.12890625 29.45703125 C-23 27 -23 27 -23.00390625 24.4453125 C-21.84802389 21.62981694 -20.58373553 20.14758045 -18.375 18.0625 C-17.65183594 17.37285156 -16.92867187 16.68320312 -16.18359375 15.97265625 C-14.29956867 14.27063002 -12.38870856 12.62379488 -10.4375 11 C-6.51122532 7.72508886 -3.26984934 3.91586821 0 0 Z " fill="#CAF716" transform="translate(268,460)"/>
<path d="M0 0 C2.25 0.1875 2.25 0.1875 5 1 C6.37868281 2.62935241 7.71274093 4.29749607 9 6 C11.11660427 7.31165257 11.11660427 7.31165257 13 8 C13 8.99 13 9.98 13 11 C13.66 11 14.32 11 15 11 C15 11.66 15 12.32 15 13 C15.99 13.33 16.98 13.66 18 14 C18 14.99 18 15.98 18 17 C18.99 17 19.98 17 21 17 C21 17.66 21 18.32 21 19 C21.99 19 22.98 19 24 19 C24 20.65 24 22.3 24 24 C18.77631875 19.64354469 13.94766804 15.04239775 9.1875 10.1875 C7.87081457 8.84537138 6.5519119 7.50541323 5.23046875 6.16796875 C4.65707764 5.58297607 4.08368652 4.9979834 3.49291992 4.39526367 C2.03233739 2.89784025 2.03233739 2.89784025 0 2 C0 1.34 0 0.68 0 0 Z " fill="#C4EA36" transform="translate(460,394)"/>
<path d="M0 0 C1.32 0 2.64 0 4 0 C4.33 1.32 4.66 2.64 5 4 C6.65 4.33 8.3 4.66 10 5 C10.33 5.99 10.66 6.98 11 8 C11.66 8.33 12.32 8.66 13 9 C13 10.32 13 11.64 13 13 C15.475 13.99 15.475 13.99 18 15 C18 15.99 18 16.98 18 18 C19.32 18 20.64 18 22 18 C21.67 19.32 21.34 20.64 21 22 C19.8274869 21.04882866 18.66212985 20.08882991 17.5 19.125 C16.52546875 18.32449219 16.52546875 18.32449219 15.53125 17.5078125 C15.0259375 17.01023437 14.520625 16.51265625 14 16 C14 15.34 14 14.68 14 14 C13.17242187 13.6596875 13.17242187 13.6596875 12.328125 13.3125 C9.31307583 11.61274074 7.18769631 9.45195184 4.75 7 C3.85796875 6.113125 2.9659375 5.22625 2.046875 4.3125 C0 2 0 2 0 0 Z " fill="#B1D437" transform="translate(377,311)"/>
<path d="M0 0 C-2.64 2.64 -5.28 5.28 -8 8 C-3.01595832 14.03331362 2.41915303 19.5184171 8 25 C7.34 25.66 6.68 26.32 6 27 C5.67 26.01 5.34 25.02 5 24 C4.1028125 23.566875 4.1028125 23.566875 3.1875 23.125 C0.29539686 21.63763267 -0.98823198 19.54429484 -3 17 C-4.04908207 16.17024743 -5.11224089 15.35803777 -6.1875 14.5625 C-9 12 -9 12 -9.875 8.6875 C-9.91625 7.800625 -9.9575 6.91375 -10 6 C-9.34 6 -8.68 6 -8 6 C-8 5.01 -8 4.02 -8 3 C-7.34 3 -6.68 3 -6 3 C-6.33 2.01 -6.66 1.02 -7 0 C-3.98968256 -0.93423645 -3.13349732 -1.04449911 0 0 Z " fill="#B9D947" transform="translate(481,322)"/>
<path d="M0 0 C6.460199 -0.36567164 6.460199 -0.36567164 8.9375 1.3125 C10 3 10 3 10 6 C11.32 6 12.64 6 14 6 C14.12375 7.175625 14.12375 7.175625 14.25 8.375 C14.72806339 11.14749104 14.72806339 11.14749104 17.0625 12.3125 C17.701875 12.539375 18.34125 12.76625 19 13 C19 13.66 19 14.32 19 15 C19.66 15 20.32 15 21 15 C20.67 15.99 20.34 16.98 20 18 C14.72 12.72 9.44 7.44 4 2 C0.51236907 3.74381547 -2.03368051 5.52806709 -5 8 C-5 6.68 -5 5.36 -5 4 C-4.01 4 -3.02 4 -2 4 C-1.34 2.68 -0.68 1.36 0 0 Z " fill="#BFE535" transform="translate(355,444)"/>
<path d="M0 0 C4.13266802 0.93924273 5.67371312 1.54319836 8.1875 5.0625 C9.0846875 6.5165625 9.0846875 6.5165625 10 8 C10.99 8.33 11.98 8.66 13 9 C13 9.66 13 10.32 13 11 C13.99 11.33 14.98 11.66 16 12 C16 12.99 16 13.98 16 15 C17.32 15 18.64 15 20 15 C23.22265625 20.2734375 23.22265625 20.2734375 24 22 C23.67 22.66 23.34 23.32 23 24 C8.9375 9.9375 8.9375 9.9375 7.453125 8.44921875 C6.04037672 7.04026818 4.61411291 5.6449104 3.1875 4.25 C1 2 1 2 0 0 Z " fill="#BEE239" transform="translate(436,370)"/>
<path d="M0 0 C3.375 0.625 3.375 0.625 7 2 C8.4375 5.125 8.4375 5.125 9 8 C9.99 8 10.98 8 12 8 C12.12375 8.928125 12.12375 8.928125 12.25 9.875 C12.81258459 12.18437567 12.81258459 12.18437567 15.0625 13.25 C15.701875 13.4975 16.34125 13.745 17 14 C17 14.66 17 15.32 17 16 C18.32 16 19.64 16 21 16 C21 17.32 21 18.64 21 20 C21.99 20.33 22.98 20.66 24 21 C24.6875 23.0625 24.6875 23.0625 25 25 C19.20879999 20.18825126 13.87191517 15.02258518 8.5625 9.6875 C7.73556641 8.86443359 6.90863281 8.04136719 6.05664062 7.19335938 C5.27611328 6.41154297 4.49558594 5.62972656 3.69140625 4.82421875 C2.98185791 4.11354248 2.27230957 3.40286621 1.54125977 2.6706543 C0 1 0 1 0 0 Z " fill="#BEE140" transform="translate(293,379)"/>
<path d="M0 0 C6.78376359 5.55035203 12.85522968 11.76442027 19 18 C18.34 18.66 17.68 19.32 17 20 C11.125 15.25 11.125 15.25 10 13 C8.68 13 7.36 13 6 13 C4 10 4 10 4 7 C3.34 7 2.68 7 2 7 C1.34 4.69 0.68 2.38 0 0 Z " fill="#C4EE26" transform="translate(435,446)"/>
<path d="M0 0 C5.06623768 4.23816537 9.80038069 8.67408963 14.4375 13.375 C15.07365234 14.01566406 15.70980469 14.65632813 16.36523438 15.31640625 C17.91250332 16.87530879 19.45736492 18.43651416 21 20 C20.34 20.66 19.68 21.32 19 22 C16.75390625 20.09570312 16.75390625 20.09570312 14.5078125 18.19140625 C12.99405921 16.9121848 12.99405921 16.9121848 11 16 C11 15.34 11 14.68 11 14 C10.38125 13.938125 9.7625 13.87625 9.125 13.8125 C8.42375 13.544375 7.7225 13.27625 7 13 C6.29289322 11.35008418 5.63437344 9.6792238 5 8 C4.15884767 6.91050746 3.28137873 5.8483614 2.375 4.8125 C0 2 0 2 0 0 Z " fill="#BFE333" transform="translate(414,425)"/>
<path d="M0 0 C3.43970309 2.7953783 6.59837123 5.51598584 9.4375 8.9375 C12.12818602 12.15319793 15.01654656 14.71357123 18.23046875 17.38671875 C20 19 20 19 22 22 C21.34 22.33 20.68 22.66 20 23 C20 22.34 20 21.68 20 21 C18.68 20.34 17.36 19.68 16 19 C16 18.34 16 17.68 16 17 C15.401875 16.731875 14.80375 16.46375 14.1875 16.1875 C12.00152146 15.00082594 10.58667406 13.90400887 9 12 C9 11.34 9 10.68 9 10 C8.05125 9.71125 7.1025 9.4225 6.125 9.125 C3 8 3 8 1 6 C0.60235737 4.01178687 0.26224651 2.01055661 0 0 Z " fill="#B3D43D" transform="translate(294,305)"/>
<path d="M0 0 C4.70511066 3.37802817 4.70511066 3.37802817 5.89453125 5.88671875 C6 8 6 8 4.453125 10.03515625 C3.72609375 10.70417969 2.9990625 11.37320312 2.25 12.0625 C1.53328125 12.73410156 0.8165625 13.40570313 0.078125 14.09765625 C-0.60765625 14.72542969 -1.2934375 15.35320312 -2 16 C-3.00554618 16.99442288 -4.00787986 17.99218175 -5 19 C-4.67 16.36 -4.34 13.72 -4 11 C-2.68 11 -1.36 11 0 11 C1.05404945 7.01803543 0.84098656 4.01804691 0 0 Z " fill="#BFE239" transform="translate(542,401)"/>
<path d="M0 0 C0.99 0.33 1.98 0.66 3 1 C2.15017845 6.07656555 -1.17631191 8.80685667 -5 12 C-7.8125 13.3125 -7.8125 13.3125 -10 14 C-10.66 14.66 -11.32 15.32 -12 16 C-12 14.02 -12 12.04 -12 10 C-10.68 10 -9.36 10 -8 10 C-6.3553326 7.53673288 -6.3553326 7.53673288 -5 5 C-4.34 5 -3.68 5 -3 5 C-3 4.34 -3 3.68 -3 3 C-2.34 3 -1.68 3 -1 3 C-0.67 2.01 -0.34 1.02 0 0 Z " fill="#C7F223" transform="translate(534,416)"/>
<path d="M0 0 C6.78376359 5.55035203 12.85522968 11.76442027 19 18 C18.34 18.66 17.68 19.32 17 20 C16.34 19.67 15.68 19.34 15 19 C15 18.34 15 17.68 15 17 C14.01 17 13.02 17 12 17 C12 16.34 12 15.68 12 15 C11.34 15 10.68 15 10 15 C9.608125 14.34 9.21625 13.68 8.8125 13 C6.70956041 9.5192724 4.17711158 6.74871502 1.42578125 3.76953125 C0 2 0 2 0 0 Z " fill="#B2D339" transform="translate(380,391)"/>
<path d="M0 0 C4.64361048 2.71821101 7.68463923 5.79010408 11.125 9.90625 C13.64749475 12.7230358 16.46863119 15.07585662 19.3984375 17.45703125 C21 19 21 19 22 22 C21.34 22 20.68 22 20 22 C20 21.34 20 20.68 20 20 C19.236875 20.0825 18.47375 20.165 17.6875 20.25 C15 20 15 20 13.1875 18.125 C12 16 12 16 12 14 C10.87994589 12.7885129 9.70427092 11.62780928 8.5 10.5 C7.29572908 9.37219072 6.12005411 8.2114871 5 7 C5 6.34 5 5.68 5 5 C3.68 4.67 2.36 4.34 1 4 C0.67 2.68 0.34 1.36 0 0 Z " fill="#BCDB50" transform="translate(398,258)"/>
<path d="M0 0 C0.99 0.33 1.98 0.66 3 1 C-2.55035203 7.78376359 -8.76442027 13.85522968 -15 20 C-15.33 18.68 -15.66 17.36 -16 16 C-15.01 16 -14.02 16 -13 16 C-13 15.34 -13 14.68 -13 14 C-12.34 14 -11.68 14 -11 14 C-11 13.01 -11 12.02 -11 11 C-6.65714286 7 -6.65714286 7 -4 7 C-4 6.34 -4 5.68 -4 5 C-3.34 5 -2.68 5 -2 5 C-2 4.01 -2 3.02 -2 2 C-1.34 2 -0.68 2 0 2 C0 1.34 0 0.68 0 0 Z " fill="#BADA40" transform="translate(517,281)"/>
<path d="M0 0 C0 3.84759538 -0.99356258 5.72281888 -3 9 C-6.0625 11.25 -6.0625 11.25 -9 13 C-9.66 13.66 -10.32 14.32 -11 15 C-13.625 15.125 -13.625 15.125 -16 15 C-16.33 15.66 -16.66 16.32 -17 17 C-17.33 15.02 -17.66 13.04 -18 11 C-15.525 11.99 -15.525 11.99 -13 13 C-8.11950075 9.0580583 -3.9419417 4.88049925 0 0 Z " fill="#BFE040" transform="translate(447,278)"/>
<path d="M0 0 C5.11790246 1.30574051 7.7614885 3.31616356 11.375 7.125 C12.24898437 8.03507813 13.12296875 8.94515625 14.0234375 9.8828125 C14.67570313 10.58148438 15.32796875 11.28015625 16 12 C13 13 13 13 10.375 12.3125 C8 11 8 11 7.1875 8.875 C7.125625 8.25625 7.06375 7.6375 7 7 C6.34 7 5.68 7 5 7 C5 5.68 5 4.36 5 3 C3.35 2.67 1.7 2.34 0 2 C0 1.34 0 0.68 0 0 Z " fill="#C2E440" transform="translate(510,218)"/>
<path d="M0 0 C1.32 0 2.64 0 4 0 C4 0.66 4 1.32 4 2 C5.32 2.33 6.64 2.66 8 3 C8 3.66 8 4.32 8 5 C8.66 5 9.32 5 10 5 C10 5.66 10 6.32 10 7 C10.66 7.33 11.32 7.66 12 8 C13.0409066 9.64142963 14.04504326 11.30712215 15 13 C12 13 12 13 9.08203125 10.41015625 C7.98442437 9.30190591 6.89485507 8.18565055 5.8125 7.0625 C5.25369141 6.49853516 4.69488281 5.93457031 4.11914062 5.35351562 C0 1.15390339 0 1.15390339 0 0 Z " fill="#BEE138" transform="translate(255,496)"/>
<path d="M0 0 C0.99 0.33 1.98 0.66 3 1 C-1.95 5.95 -6.9 10.9 -12 16 C-13.04059132 12.87822605 -13.32284898 11.92916561 -12 9 C-9.5 7.875 -9.5 7.875 -7 7 C-6.67 6.34 -6.34 5.68 -6 5 C-5.01 5 -4.02 5 -3 5 C-3 4.34 -3 3.68 -3 3 C-2.34 3 -1.68 3 -1 3 C-0.67 2.01 -0.34 1.02 0 0 Z " fill="#B5D53C" transform="translate(335,464)"/>
<path d="M0 0 C0.33 0.66 0.66 1.32 1 2 C0.67 2.99 0.34 3.98 0 5 C-0.66 5 -1.32 5 -2 5 C-2.103125 5.53625 -2.20625 6.0725 -2.3125 6.625 C-3.18092697 9.62502044 -4.55620296 12.2379535 -6 15 C-7.32 14.67 -8.64 14.34 -10 14 C-9.34 13.34 -8.68 12.68 -8 12 C-7.7525 11.0925 -7.505 10.185 -7.25 9.25 C-5.61103202 4.98868325 -3.35319591 3.06161366 0 0 Z M-12 15 C-11.34 15.33 -10.68 15.66 -10 16 C-11.32 16.99 -12.64 17.98 -14 19 C-13.34 17.68 -12.68 16.36 -12 15 Z " fill="#CAF913" transform="translate(347,224)"/>
<path d="M0 0 C0.68359375 1.796875 0.68359375 1.796875 1 4 C-0.21484375 5.703125 -0.21484375 5.703125 -1.9375 7.25 C-2.50339844 7.77078125 -3.06929688 8.2915625 -3.65234375 8.828125 C-4.09707031 9.21484375 -4.54179687 9.6015625 -5 10 C-8.21043882 8.61811547 -10.04936365 7.07578097 -12.25 4.375 C-12.77078125 3.74335937 -13.2915625 3.11171875 -13.828125 2.4609375 C-14.21484375 1.97882812 -14.6015625 1.49671875 -15 1 C-13.68 1 -12.36 1 -11 1 C-10.34 2.65 -9.68 4.3 -9 6 C-7.02 6 -5.04 6 -3 6 C-3 4.68 -3 3.36 -3 2 C-2.01 2 -1.02 2 0 2 C0 1.34 0 0.68 0 0 Z " fill="#C3E63F" transform="translate(441,511)"/>
<path d="M0 0 C1.9375 0.375 1.9375 0.375 4 1 C4.33 1.66 4.66 2.32 5 3 C3.68 2.67 2.36 2.34 1 2 C1 2.66 1 3.32 1 4 C-0.3984375 5.41015625 -0.3984375 5.41015625 -2.375 7.0625 C-5.79851325 9.97064567 -9.16616738 12.92660273 -12.5 15.9375 C-13.3559375 16.70964844 -14.211875 17.48179687 -15.09375 18.27734375 C-15.7228125 18.84582031 -16.351875 19.41429687 -17 20 C-17.66 19.67 -18.32 19.34 -19 19 C-18.56655273 18.60208252 -18.13310547 18.20416504 -17.68652344 17.79418945 C-15.70428965 15.97060853 -13.72712663 14.14161623 -11.75 12.3125 C-11.06808594 11.68666016 -10.38617188 11.06082031 -9.68359375 10.41601562 C-6.14313278 7.13335522 -2.8886516 3.89372368 0 0 Z " fill="#B0CB4A" transform="translate(509,216)"/>
<path d="M0 0 C1.98 1.65 3.96 3.3 6 5 C5.43040847 8.62613199 4.07625466 10.25517741 1.4375 12.75 C0.47650391 13.67039062 0.47650391 13.67039062 -0.50390625 14.609375 C-0.99761719 15.06828125 -1.49132812 15.5271875 -2 16 C-3.125 12.25 -3.125 12.25 -2 10 C-1.01 10 -0.02 10 1 10 C2.15837626 5.94568308 1.83691257 3.78187881 0 0 Z " fill="#BFE332" transform="translate(542,247)"/>
<path d="M0 0 C0.33 0.66 0.66 1.32 1 2 C0.0165004 3.73751596 -0.97220312 5.47271756 -2.0078125 7.1796875 C-3.22009871 9.40380314 -3.69637362 11.49508234 -4 14 C-5.65 12.68 -7.3 11.36 -9 10 C-7.61811547 6.78956118 -6.07578097 4.95063635 -3.375 2.75 C-2.74335938 2.22921875 -2.11171875 1.7084375 -1.4609375 1.171875 C-0.73777344 0.59179688 -0.73777344 0.59179688 0 0 Z " fill="#C5EB34" transform="translate(327,244)"/>
<path d="M0 0 C0 3 0 3 -1.29760742 4.56225586 C-1.89420166 5.10760986 -2.4907959 5.65296387 -3.10546875 6.21484375 C-3.75966797 6.81876953 -4.41386719 7.42269531 -5.08789062 8.04492188 C-5.78076172 8.66947266 -6.47363281 9.29402344 -7.1875 9.9375 C-8.19780273 10.86852539 -8.19780273 10.86852539 -9.22851562 11.81835938 C-12.71911766 15.01609139 -16.25539156 18.09883735 -20 21 C-20.66 20.67 -21.32 20.34 -22 20 C-19.64813672 17.78920316 -17.29308293 15.58183264 -14.9375 13.375 C-14.28072266 12.75753906 -13.62394531 12.14007813 -12.94726562 11.50390625 C-8.7240842 7.55117487 -4.41779955 3.73416087 0 0 Z " fill="#BBDA45" transform="translate(497,230)"/>
<path d="M0 0 C2.475 0.99 2.475 0.99 5 2 C5 2.66 5 3.32 5 4 C6.98 4.66 8.96 5.32 11 6 C11.33 7.65 11.66 9.3 12 11 C12.66 11 13.32 11 14 11 C14 11.66 14 12.32 14 13 C14.66 13 15.32 13 16 13 C15.67 13.99 15.34 14.98 15 16 C12.49599357 13.5248518 9.99748094 11.04423106 7.5 8.5625 C6.78457031 7.85544922 6.06914062 7.14839844 5.33203125 6.41992188 C4.65527344 5.74638672 3.97851562 5.07285156 3.28125 4.37890625 C2.65283203 3.7557251 2.02441406 3.13254395 1.37695312 2.49047852 C0 1 0 1 0 0 Z " fill="#BDDF41" transform="translate(265,351)"/>
<path d="M0 0 C3.21524305 1.40844718 5.32183868 3.10344786 7.75 5.625 C8.67039062 6.57246094 8.67039062 6.57246094 9.609375 7.5390625 C10.06828125 8.02117187 10.5271875 8.50328125 11 9 C10.01 9 9.02 9 8 9 C7.401875 8.34 6.80375 7.68 6.1875 7 C4.0915944 4.67130802 4.0915944 4.67130802 0.75 4.75 C-0.1575 4.8325 -1.065 4.915 -2 5 C-2 5.66 -2 6.32 -2 7 C-3.65 7.33 -5.3 7.66 -7 8 C-6.02133662 6.85373678 -5.04205413 5.70800212 -4.0625 4.5625 C-3.51722656 3.92441406 -2.97195313 3.28632813 -2.41015625 2.62890625 C-1.63204305 1.73008851 -0.84063472 0.84063472 0 0 Z " fill="#C1E14C" transform="translate(355,216)"/>
<path d="M0 0 C2.86207152 1.28299758 5.0245088 2.530636 7 5 C7 5.99 7 6.98 7 8 C9.33214148 9.20628008 11.49642139 10.1654738 14 11 C13.67 11.99 13.34 12.98 13 14 C7.88116906 11.67325866 4.18512547 9.61975105 1.8125 4.375 C1.544375 3.59125 1.27625 2.8075 1 2 C0.67 1.34 0.34 0.68 0 0 Z " fill="#C6F02B" transform="translate(388,471)"/>
<path d="M0 0 C0.66 0.33 1.32 0.66 2 1 C0.88200014 2.33920838 -0.24461897 3.67122556 -1.375 5 C-2.31472656 6.11375 -2.31472656 6.11375 -3.2734375 7.25 C-4.12808594 8.11625 -4.12808594 8.11625 -5 9 C-5.66 9 -6.32 9 -7 9 C-7 9.66 -7 10.32 -7 11 C-8.609375 12.65625 -8.609375 12.65625 -10.75 14.5 C-11.44609375 15.1084375 -12.1421875 15.716875 -12.859375 16.34375 C-14.84460792 17.87976963 -16.71872045 18.9723966 -19 20 C-13.17371096 12.84198775 -6.5617015 6.47408234 0 0 Z " fill="#0D1700" transform="translate(353,449)"/>
<path d="M0 0 C2.31 0 4.62 0 7 0 C7.33 2.31 7.66 4.62 8 7 C8.99 7 9.98 7 11 7 C11.66 8.98 12.32 10.96 13 13 C8.11950075 9.0580583 3.9419417 4.88049925 0 0 Z " fill="#C4E73D" transform="translate(490,424)"/>
<path d="M0 0 C1.32 1.32 2.64 2.64 4 4 C3.401875 4.103125 2.80375 4.20625 2.1875 4.3125 C-0.37670761 5.11839382 -1.15023742 6.0790927 -3 8 C-8.48571429 12 -8.48571429 12 -12 12 C-8.04 8.04 -4.08 4.08 0 0 Z " fill="#BBDD3D" transform="translate(280,291)"/>
<path d="M0 0 C2.475 0.99 2.475 0.99 5 2 C5 2.66 5 3.32 5 4 C5.804375 4.2475 6.60875 4.495 7.4375 4.75 C10 6 10 6 10.8125 8.125 C10.874375 8.74375 10.93625 9.3625 11 10 C12.32 10 13.64 10 15 10 C15 11.65 15 13.3 15 15 C9.72997792 10.60831493 4.64697949 6.0573621 0 1 C0 0.67 0 0.34 0 0 Z " fill="#C2E73B" transform="translate(397,483)"/>
<path d="M0 0 C2.31 0.66 4.62 1.32 7 2 C7.33 3.65 7.66 5.3 8 7 C9.65 7.33 11.3 7.66 13 8 C13 9.65 13 11.3 13 13 C11.8274869 12.04882866 10.66212985 11.08882991 9.5 10.125 C8.8503125 9.59132813 8.200625 9.05765625 7.53125 8.5078125 C7.0259375 8.01023437 6.520625 7.51265625 6 7 C6 6.34 6 5.68 6 5 C5.38125 4.731875 4.7625 4.46375 4.125 4.1875 C2 3 2 3 0 0 Z " fill="#ABCD35" transform="translate(407,342)"/>
<path d="M0 0 C-0.47241991 4.25177923 -2.84964071 6.29969203 -6 9 C-6.99 9 -7.98 9 -9 9 C-8.875 6.75 -8.875 6.75 -8 4 C-2.91891892 0 -2.91891892 0 0 0 Z " fill="#BDDF36" transform="translate(299,501)"/>
<path d="M0 0 C0.99 0.33 1.98 0.66 3 1 C1.35 2.32 -0.3 3.64 -2 5 C-1.125 1.125 -1.125 1.125 0 0 Z M-8 8 C-7.34 8.66 -6.68 9.32 -6 10 C-6.66 10 -7.32 10 -8 10 C-8 10.99 -8 11.98 -8 13 C-11 15.1875 -11 15.1875 -14 17 C-12.125 11.25 -12.125 11.25 -11 9 C-10.01 8.67 -9.02 8.34 -8 8 Z " fill="#CAF718" transform="translate(459,269)"/>
<path d="M0 0 C0 3 0 3 -2.25 5.375 C-3.1575 6.24125 -4.065 7.1075 -5 8 C-5.928125 9.2065625 -5.928125 9.2065625 -6.875 10.4375 C-9.59165456 13.7134658 -12.71332315 16.31341864 -16 19 C-16.66 18.67 -17.32 18.34 -18 18 C-12.06 12.06 -6.12 6.12 0 0 Z " fill="#0E1800" transform="translate(333,469)"/>
<path d="M0 0 C0.886875 0.763125 1.77375 1.52625 2.6875 2.3125 C5.31864364 4.51546225 8.04909925 6.24541036 11 8 C12.8125 9.5 12.8125 9.5 14 11 C14 11.99 14 12.98 14 14 C10.5767866 12.5834979 9.17515341 10.93172851 7 8 C6.01 7.67 5.02 7.34 4 7 C0 2.54285714 0 2.54285714 0 0 Z " fill="#C6EE2F" transform="translate(358,220)"/>
<path d="M0 0 C0.6875 1.8125 0.6875 1.8125 1 4 C-0.1875 5.5 -0.1875 5.5 -2 7 C-2.61875 7.70125 -3.2375 8.4025 -3.875 9.125 C-6.28521273 11.25165829 -7.84866776 11.64985197 -11 12 C-7.49102731 7.81576108 -3.91939465 3.80411834 0 0 Z " fill="#C3E638" transform="translate(339,232)"/>
<path d="M0 0 C-2.64 2.64 -5.28 5.28 -8 8 C-7.67 8.99 -7.34 9.98 -7 11 C-7.99 11.495 -7.99 11.495 -9 12 C-9.33 10.02 -9.66 8.04 -10 6 C-9.34 6 -8.68 6 -8 6 C-8 5.01 -8 4.02 -8 3 C-7.34 3 -6.68 3 -6 3 C-6.33 2.01 -6.66 1.02 -7 0 C-3.98968256 -0.93423645 -3.13349732 -1.04449911 0 0 Z " fill="#BADD38" transform="translate(481,322)"/>
<path d="M0 0 C0 4.33174693 -2.65822583 6.22353653 -5.5 9.1875 C-6.28697266 10.02571289 -6.28697266 10.02571289 -7.08984375 10.88085938 C-8.38661613 12.26015364 -9.69246259 13.63090644 -11 15 C-11.33 14.01 -11.66 13.02 -12 12 C-8 8 -4 4 0 0 Z " fill="#C9F718" transform="translate(302,426)"/>
<path d="M0 0 C4.88049925 3.9419417 9.0580583 8.11950075 13 13 C12.01 13.495 12.01 13.495 11 14 C11 13.34 11 12.68 11 12 C10.443125 11.773125 9.88625 11.54625 9.3125 11.3125 C6.33840412 9.62449964 4.27991135 7.53323483 2 5 C2 4.34 2 3.68 2 3 C1.34 3 0.68 3 0 3 C0 2.01 0 1.02 0 0 Z " fill="#B0CE47" transform="translate(367,378)"/>
<path d="M0 0 C4.88049925 3.9419417 9.0580583 8.11950075 13 13 C9.71245489 12.42110619 8.06327505 11.45171589 5.75 9.0625 C5.22921875 8.53785156 4.7084375 8.01320313 4.171875 7.47265625 C3 6 3 6 3 4 C2.01 3.67 1.02 3.34 0 3 C0 2.01 0 1.02 0 0 Z " fill="#ACCA44" transform="translate(497,356)"/>
<path d="M0 0 C0.99 0.33 1.98 0.66 3 1 C0.03 4.3 -2.94 7.6 -6 11 C-6.99 10.67 -7.98 10.34 -9 10 C-8.1875 8.0625 -8.1875 8.0625 -7 6 C-6.01 5.67 -5.02 5.34 -4 5 C-2.61423077 3.37667033 -1.27358732 1.71275535 0 0 Z " fill="#141E04" transform="translate(489,233)"/>
<path d="M0 0 C6.01338199 3.006691 8.93532042 5.87064084 12 12 C11.401875 11.690625 10.80375 11.38125 10.1875 11.0625 C7.91043228 9.89790296 7.91043228 9.89790296 5 9 C5 8.01 5 7.02 5 6 C4.360625 5.7525 3.72125 5.505 3.0625 5.25 C1 4 1 4 0.25 1.875 C0.1675 1.25625 0.085 0.6375 0 0 Z " fill="#CAF71D" transform="translate(373,387)"/>
<path d="M0 0 C4.52615993 3.67832017 8.39424999 7.41086363 12 12 C10.35 12 8.7 12 7 12 C7 10.68 7 9.36 7 8 C6.401875 7.7525 5.80375 7.505 5.1875 7.25 C2.68373081 5.81927475 1.51927612 4.4308418 0 2 C0 1.34 0 0.68 0 0 Z " fill="#B2D140" transform="translate(519,378)"/>
<path d="M0 0 C4.72885022 1.01332505 7.24203795 1.89750975 10.0625 6 C10.701875 6.99 11.34125 7.98 12 9 C12.99 9.66 13.98 10.32 15 11 C14.67 11.66 14.34 12.32 14 13 C13.48050781 12.52949219 12.96101562 12.05898438 12.42578125 11.57421875 C7.97854442 7.60162607 7.97854442 7.60162607 3.0625 4.25 C1 3 1 3 0 0 Z " fill="#C9F61C" transform="translate(511,375)"/>
<path d="M0 0 C2.875 0.25 2.875 0.25 6 1 C7.1875 2.875 7.1875 2.875 8 5 C9.5412312 6.70921589 9.5412312 6.70921589 11 8 C10.67 8.99 10.34 9.98 10 11 C8.33035479 9.35718838 6.6643536 7.71067239 5 6.0625 C4.071875 5.14597656 3.14375 4.22945313 2.1875 3.28515625 C0 1 0 1 0 0 Z " fill="#ABCA3A" transform="translate(333,268)"/>
<path d="M0 0 C0 3.73928499 -0.91959602 4.40902253 -3.375 7.125 C-4.31472656 8.18074219 -4.31472656 8.18074219 -5.2734375 9.2578125 C-7 11 -7 11 -9 12 C-8.45015228 8.12488273 -6.72444669 6.40423494 -3.9375 3.75 C-3.20402344 3.04359375 -2.47054688 2.3371875 -1.71484375 1.609375 C-1.14894531 1.07828125 -0.58304687 0.5471875 0 0 Z M-11 12 C-10.34 12.33 -9.68 12.66 -9 13 C-9.99 13.66 -10.98 14.32 -12 15 C-11.67 14.01 -11.34 13.02 -11 12 Z " fill="#C9F814" transform="translate(318,410)"/>
<path d="M0 0 C1.12894876 0.93274109 2.25300876 1.87140122 3.375 2.8125 C4.00148438 3.33457031 4.62796875 3.85664063 5.2734375 4.39453125 C7 6 7 6 9 9 C6.69 8.67 4.38 8.34 2 8 C1.34 5.36 0.68 2.72 0 0 Z " fill="#B5D738" transform="translate(358,369)"/>
<path d="M0 0 C2.475 0.99 2.475 0.99 5 2 C5 2.66 5 3.32 5 4 C6.32 4 7.64 4 9 4 C9 5.32 9 6.64 9 8 C9.99 8.33 10.98 8.66 12 9 C11.67 9.99 11.34 10.98 11 12 C9.16364422 10.19047409 7.33083792 8.37759362 5.5 6.5625 C4.97535156 6.04623047 4.45070313 5.52996094 3.91015625 4.99804688 C2.58775448 3.68423213 1.29164432 2.34406495 0 1 C0 0.67 0 0.34 0 0 Z " fill="#BBDF3A" transform="translate(281,367)"/>
<path d="M0 0 C1.17539996 0.92652701 2.34010577 1.86663387 3.5 2.8125 C4.1496875 3.33457031 4.799375 3.85664063 5.46875 4.39453125 C7 6 7 6 7 9 C6.01 9.33 5.02 9.66 4 10 C3.67 8.68 3.34 7.36 3 6 C2.34 6 1.68 6 1 6 C0.67 4.02 0.34 2.04 0 0 Z " fill="#B3D733" transform="translate(350,361)"/>
<path d="M0 0 C0.66 0 1.32 0 2 0 C3.19961999 1.43287943 4.39501028 2.86973679 5.55859375 4.33203125 C7.7814031 6.90422526 10.33703093 8.89439655 13 11 C12.67 11.99 12.34 12.98 12 14 C9 12 9 12 8.5625 10 C8.19238291 7.82918416 8.19238291 7.82918416 6.125 6.8125 C4.43247845 6.16535941 2.71903407 5.57301136 1 5 C0.67 3.35 0.34 1.7 0 0 Z " fill="#C9F71B" transform="translate(301,315)"/>
<path d="M0 0 C-1.3094668 1.33631236 -2.62265485 2.66897925 -3.9375 4 C-4.66839844 4.7425 -5.39929688 5.485 -6.15234375 6.25 C-8 8 -8 8 -9 8 C-8.67 5.69 -8.34 3.38 -8 1 C-3.375 -1.125 -3.375 -1.125 0 0 Z " fill="#BCE135" transform="translate(529,274)"/>
<path d="M0 0 C0 4.31618166 -2.13270348 5.92789659 -5 9 C-5.66 9 -6.32 9 -7 9 C-7.2475 9.61875 -7.495 10.2375 -7.75 10.875 C-9.22047178 13.37480203 -10.41403076 13.83316022 -13 15 C-9.09489511 9.49280079 -4.90282356 4.64172645 0 0 Z " fill="#CAF719" transform="translate(506,222)"/>
<path d="M0 0 C2.91517292 1.07401108 4.77810176 1.77810176 7 4 C9.32275177 4.40047444 11.65739357 4.7397104 14 5 C14 5.99 14 6.98 14 8 C8.53165594 7.36414604 4.76431775 6.129349 1.1875 1.8125 C0.795625 1.214375 0.40375 0.61625 0 0 Z " fill="#C1E92D" transform="translate(269,510)"/>
<path d="M0 0 C0 3 0 3 -2.125 5.4375 C-9.48780488 12 -9.48780488 12 -14 12 C-12.41856529 10.56041153 -10.83477221 9.12341355 -9.25 7.6875 C-8.36828125 6.88699219 -7.4865625 6.08648437 -6.578125 5.26171875 C-4.44550672 3.39083089 -2.29812057 1.65915714 0 0 Z " fill="#CBF239" transform="translate(483,245)"/>
<path d="M0 0 C1.32 0.33 2.64 0.66 4 1 C0.7 4.3 -2.6 7.6 -6 11 C-6.33 10.01 -6.66 9.02 -7 8 C-6.67 7.34 -6.34 6.68 -6 6 C-5.01 6 -4.02 6 -3 6 C-2.690625 5.38125 -2.38125 4.7625 -2.0625 4.125 C-1.375 2.75 -0.6875 1.375 0 0 Z " fill="#B4D342" transform="translate(345,453)"/>
<path d="M0 0 C4.13621084 3.3810038 7.81316569 6.66590534 11 11 C9.35 11 7.7 11 6 11 C6 9.68 6 8.36 6 7 C5.01 6.67 4.02 6.34 3 6 C3 5.34 3 4.68 3 4 C2.01 3.67 1.02 3.34 0 3 C0 2.01 0 1.02 0 0 Z " fill="#B1D042" transform="translate(531,390)"/>
<path d="M0 0 C0 3.10551666 -0.5393715 4.35261084 -2 7 C-0.68 7.99 0.64 8.98 2 10 C1.01 11.485 1.01 11.485 0 13 C-1.98 10.69 -3.96 8.38 -6 6 C-4.02 4.02 -2.04 2.04 0 0 Z " fill="#0D1800" transform="translate(478,324)"/>
<path d="M0 0 C0.66 0.33 1.32 0.66 2 1 C0.64978174 5.41889613 -1.26115668 7.34345343 -5 10 C-5.33 8.68 -5.66 7.36 -6 6 C-5.01 6 -4.02 6 -3 6 C-3 5.01 -3 4.02 -3 3 C-2.34 3 -1.68 3 -1 3 C-0.67 2.01 -0.34 1.02 0 0 Z " fill="#B9DC32" transform="translate(448,504)"/>
<path d="M0 0 C4.13621084 3.3810038 7.81316569 6.66590534 11 11 C8 11 8 11 6.2109375 9.609375 C5.30214844 8.68898438 5.30214844 8.68898438 4.375 7.75 C3.76398438 7.14671875 3.15296875 6.5434375 2.5234375 5.921875 C0.9257803 3.90636899 0.41127602 2.51211839 0 0 Z " fill="#ACCA44" transform="translate(380,391)"/>
<path d="M0 0 C2.71675995 0.36712972 4.61063713 0.72744599 6.875 2.3125 C7.431875 3.1478125 7.431875 3.1478125 8 4 C7.5703125 6.10546875 7.5703125 6.10546875 7 8 C5.8274869 7.04882866 4.66212985 6.08882991 3.5 5.125 C2.8503125 4.59132813 2.200625 4.05765625 1.53125 3.5078125 C1.0259375 3.01023437 0.520625 2.51265625 0 2 C0 1.34 0 0.68 0 0 Z " fill="#B3D534" transform="translate(399,333)"/>
<path d="M0 0 C1.7074998 1.28062485 3.37373596 2.61767557 5 4 C5 4.66 5 5.32 5 6 C5.61875 6.268125 6.2375 6.53625 6.875 6.8125 C9 8 9 8 11 11 C8 11 8 11 6 9.0625 C5.34 8.381875 4.68 7.70125 4 7 C3.01 6.67 2.02 6.34 1 6 C0.67 4.02 0.34 2.04 0 0 Z " fill="#ACCB3D" transform="translate(316,327)"/>
<path d="M0 0 C-1.38009621 3.33523252 -2.84950652 5.18607951 -6 7 C-6.99 6.67 -7.98 6.34 -9 6 C-7.93344655 3.09121786 -7.32878952 2.16439476 -4.5 0.75 C-2 0 -2 0 0 0 Z " fill="#111B03" transform="translate(284,441)"/>
<path d="M0 0 C0 3.28565953 -0.24329531 4.28509275 -2 7 C-3.92358201 8.79056836 -5.92632276 10.37712216 -8 12 C-7.84595887 6.91664275 -4.97931568 4.64245282 -1.49609375 1.35546875 C-1.00238281 0.90816406 -0.50867188 0.46085937 0 0 Z " fill="#131D01" transform="translate(521,435)"/>
<path d="M0 0 C4.43458973 1.3937282 6.87378374 3.60582235 10 7 C9.67 7.99 9.34 8.98 9 10 C7.49702124 8.52386015 5.99768715 7.04400843 4.5 5.5625 C3.6646875 4.73878906 2.829375 3.91507812 1.96875 3.06640625 C0 1 0 1 0 0 Z " fill="#BBDA42" transform="translate(245,486)"/>
<path d="M0 0 C1.32 0.66 2.64 1.32 4 2 C2.60667426 5.36720387 1.0210714 6.9859524 -2 9 C-2.33 8.34 -2.66 7.68 -3 7 C-2.34 7 -1.68 7 -1 7 C-1.20625 6.401875 -1.4125 5.80375 -1.625 5.1875 C-2 3 -2 3 0 0 Z " fill="#0D1601" transform="translate(249,470)"/>
<path d="M0 0 C2.475 0.99 2.475 0.99 5 2 C5 2.66 5 3.32 5 4 C6.32 4.66 7.64 5.32 9 6 C9 6.66 9 7.32 9 8 C9.66 8 10.32 8 11 8 C10.67 8.99 10.34 9.98 10 11 C8.33035479 9.35718838 6.6643536 7.71067239 5 6.0625 C4.071875 5.14597656 3.14375 4.22945313 2.1875 3.28515625 C0 1 0 1 0 0 Z " fill="#B8D944" transform="translate(365,451)"/>
<path d="M0 0 C1.12894876 0.93274109 2.25300876 1.87140122 3.375 2.8125 C4.00148438 3.33457031 4.62796875 3.85664063 5.2734375 4.39453125 C7 6 7 6 9 9 C8.01 9.495 8.01 9.495 7 10 C7 9.34 7 8.68 7 8 C5.35 7.67 3.7 7.34 2 7 C1.34 4.69 0.68 2.38 0 0 Z " fill="#AECE3E" transform="translate(435,446)"/>
<path d="M0 0 C1.12894876 0.93274109 2.25300876 1.87140122 3.375 2.8125 C4.00148438 3.33457031 4.62796875 3.85664063 5.2734375 4.39453125 C7 6 7 6 9 9 C6.1875 8.875 6.1875 8.875 3 8 C1.26090967 5.27542515 0 3.27517534 0 0 Z " fill="#AFCE3D" transform="translate(405,416)"/>
<path d="M0 0 C0.33 0.66 0.66 1.32 1 2 C2.93330603 3.09166275 2.93330603 3.09166275 5 4 C5.66 4.33 6.32 4.66 7 5 C7 6.65 7 8.3 7 10 C5.0625 9.1875 5.0625 9.1875 3 8 C2.67 7.01 2.34 6.02 2 5 C1.34 4.67 0.68 4.34 0 4 C0 2.68 0 1.36 0 0 Z " fill="#C8F918" transform="translate(290,371)"/>
<path d="M0 0 C4.19162145 0.95264124 5.7207791 1.63260408 8.375 5.125 C8.91125 6.07375 9.4475 7.0225 10 8 C9.67 8.66 9.34 9.32 9 10 C5.06451569 6.93906776 2.31883213 4.50884026 0 0 Z " fill="#BDE041" transform="translate(436,370)"/>
<path d="M0 0 C0.99 0.33 1.98 0.66 3 1 C0.03 3.97 -2.94 6.94 -6 10 C-6.33 8.68 -6.66 7.36 -7 6 C-6.34 6 -5.68 6 -5 6 C-5 5.34 -5 4.68 -5 4 C-4.01 4 -3.02 4 -2 4 C-2 3.34 -2 2.68 -2 2 C-1.34 2 -0.68 2 0 2 C0 1.34 0 0.68 0 0 Z " fill="#B9DA42" transform="translate(536,263)"/>
<path d="M0 0 C0.66 0 1.32 0 2 0 C2 1.32 2 2.64 2 4 C2.61875 4.0825 3.2375 4.165 3.875 4.25 C6 5 6 5 7.25 7.0625 C7.4975 7.701875 7.745 8.34125 8 9 C2.25 7.25 2.25 7.25 0 5 C-0.125 2.375 -0.125 2.375 0 0 Z " fill="#C6F027" transform="translate(412,494)"/>
<path d="M0 0 C1.12894876 0.93274109 2.25300876 1.87140122 3.375 2.8125 C4.00148438 3.33457031 4.62796875 3.85664063 5.2734375 4.39453125 C7 6 7 6 9 9 C8.01 9 7.02 9 6 9 C5.67 8.01 5.34 7.02 5 6 C3.68 6 2.36 6 1 6 C0.67 4.02 0.34 2.04 0 0 Z " fill="#ACCC3C" transform="translate(454,465)"/>
<path d="M0 0 C1.093125 0.226875 2.18625 0.45375 3.3125 0.6875 C2.9825 1.3475 2.6525 2.0075 2.3125 2.6875 C-0.02083333 3.35416667 -2.35416667 4.02083333 -4.6875 4.6875 C-5.0175 5.3475 -5.3475 6.0075 -5.6875 6.6875 C-6.3475 6.3575 -7.0075 6.0275 -7.6875 5.6875 C-6.09021454 0.89564363 -5.26733035 -0.44638393 0 0 Z " fill="#CAF817" transform="translate(358.6875,441.3125)"/>
<path d="M0 0 C0.33 0.66 0.66 1.32 1 2 C-0.3692856 5.57535683 -1.48711166 7.61220637 -4.5625 9.9375 C-5.366875 10.288125 -6.17125 10.63875 -7 11 C-7.66 10.67 -8.32 10.34 -9 10 C-8.04882866 8.8274869 -7.08882991 7.66212985 -6.125 6.5 C-5.32449219 5.52546875 -5.32449219 5.52546875 -4.5078125 4.53125 C-4.01023437 4.0259375 -3.51265625 3.520625 -3 3 C-2.34 3 -1.68 3 -1 3 C-0.67 2.01 -0.34 1.02 0 0 Z " fill="#B2D240" transform="translate(292,433)"/>
<path d="M0 0 C7.48291572 6.15034169 7.48291572 6.15034169 10 10 C6.4628562 9.43867066 5.00738321 8.30442253 2.75 5.5625 C1.96882813 4.63630859 1.96882813 4.63630859 1.171875 3.69140625 C0 2 0 2 0 0 Z " fill="#AECB46" transform="translate(414,425)"/>
<path d="M0 0 C1.12894876 0.93274109 2.25300876 1.87140122 3.375 2.8125 C4.00148438 3.33457031 4.62796875 3.85664063 5.2734375 4.39453125 C7 6 7 6 9 9 C6.06216502 8.37046393 3.44994097 7.77409519 1 6 C0.25 2.875 0.25 2.875 0 0 Z " fill="#B2D241" transform="translate(510,369)"/>
<path d="M0 0 C0.99 0.495 0.99 0.495 2 1 C2 1.99 2 2.98 2 4 C2.639375 4.103125 3.27875 4.20625 3.9375 4.3125 C4.618125 4.539375 5.29875 4.76625 6 5 C6.33 5.99 6.66 6.98 7 8 C2.25 7.25 2.25 7.25 0 5 C-0.125 2.375 -0.125 2.375 0 0 Z " fill="#C7F329" transform="translate(373,303)"/>
<path d="M0 0 C4.13621084 3.3810038 7.81316569 6.66590534 11 11 C8 11 8 11 6.3125 9.625 C5 8 5 8 5 6 C4.360625 5.7525 3.72125 5.505 3.0625 5.25 C1 4 1 4 0.37109375 1.921875 C0.24863281 1.28765625 0.12617187 0.6534375 0 0 Z " fill="#B9D948" transform="translate(526,231)"/>
<path d="M0 0 C4.35535069 1.16142685 6.64619703 2.07699505 9 6 C6.69 5.67 4.38 5.34 2 5 C1.34 3.35 0.68 1.7 0 0 Z " fill="#C2E92F" transform="translate(517,225)"/>
<path d="M0 0 C1.65 1.32 3.3 2.64 5 4 C4.60196439 6.88575819 4.20990931 7.82189513 1.9375 9.75 C1.298125 10.1625 0.65875 10.575 0 11 C0 10.01 0 9.02 0 8 C0.66 8 1.32 8 2 8 C1.34 5.36 0.68 2.72 0 0 Z " fill="#B9D74C" transform="translate(467,479)"/>
<path d="M0 0 C6.875 1.875 6.875 1.875 8 3 C8.04063832 4.66617115 8.042721 6.33388095 8 8 C6.85073734 7.04578192 5.70569459 6.08647955 4.5625 5.125 C3.92441406 4.59132813 3.28632813 4.05765625 2.62890625 3.5078125 C1 2 1 2 0 0 Z " fill="#ADCE37" transform="translate(325,260)"/>
<path d="M0 0 C1.14926266 0.95421808 2.29430541 1.91352045 3.4375 2.875 C4.07558594 3.40867187 4.71367187 3.94234375 5.37109375 4.4921875 C7 6 7 6 8 8 C5.125 7.75 5.125 7.75 2 7 C0.13209062 4.45285085 0 3.19131 0 0 Z " fill="#B5D73B" transform="translate(489,348)"/>
<path d="M0 0 C1 3 1 3 1 5 C2.32 5.66 3.64 6.32 5 7 C5 7.99 5 8.98 5 10 C3.85073734 9.04578192 2.70569459 8.08647955 1.5625 7.125 C0.92441406 6.59132813 0.28632813 6.05765625 -0.37109375 5.5078125 C-2 4 -2 4 -3 2 C-2.01 1.34 -1.02 0.68 0 0 Z " fill="#ABCD37" transform="translate(347,277)"/>
<path d="M0 0 C3.48872415 1.16290805 4.09976864 2.13967609 6.1875 5.0625 C6.71730469 5.79597656 7.24710937 6.52945312 7.79296875 7.28515625 C8.19128906 7.85105469 8.58960938 8.41695313 9 9 C7.35 8.67 5.7 8.34 4 8 C3.67 7.01 3.34 6.02 3 5 C2.01 4.34 1.02 3.68 0 3 C0 2.01 0 1.02 0 0 Z " fill="#C9F71D" transform="translate(400,262)"/>
<path d="M0 0 C0.66 0.33 1.32 0.66 2 1 C-0.82506863 3.9297008 -3.78796065 6.50174717 -7 9 C-7.66 8.67 -8.32 8.34 -9 8 C-7.87811441 6.85111717 -6.75238316 5.70598863 -5.625 4.5625 C-4.99851562 3.92441406 -4.37203125 3.28632813 -3.7265625 2.62890625 C-2 1 -2 1 0 0 Z " fill="#AAC740" transform="translate(468,258)"/>
<path d="M0 0 C0.99 0.33 1.98 0.66 3 1 C0.69 3.31 -1.62 5.62 -4 8 C-4.33 6.68 -4.66 5.36 -5 4 C-4.34 4 -3.68 4 -3 4 C-3 3.34 -3 2.68 -3 2 C-2.01 1.34 -1.02 0.68 0 0 Z " fill="#B0CE41" transform="translate(464,490)"/>
<path d="M0 0 C0.99 0.33 1.98 0.66 3 1 C1.02 2.98 -0.96 4.96 -3 7 C-3.99 6.67 -4.98 6.34 -6 6 C-4 4 -2 2 0 0 Z " fill="#BDDC3D" transform="translate(259,467)"/>
<path d="M0 0 C2.475 0.495 2.475 0.495 5 1 C5 1.66 5 2.32 5 3 C5.99 3.33 6.98 3.66 8 4 C8 4.66 8 5.32 8 6 C8.99 6.33 9.98 6.66 11 7 C7.05123902 6.43589129 4.24365824 5.34264206 1 3 C0.67 2.01 0.34 1.02 0 0 Z " fill="#CBF916" transform="translate(502,434)"/>
<path d="M0 0 C3.91841827 1.30613942 6.32640809 2.83129848 9 6 C9 6.66 9 7.32 9 8 C9.66 8 10.32 8 11 8 C10.67 8.66 10.34 9.32 10 10 C8.8274869 9.04882866 7.66212985 8.08882991 6.5 7.125 C5.8503125 6.59132813 5.200625 6.05765625 4.53125 5.5078125 C4.0259375 5.01023437 3.520625 4.51265625 3 4 C3 3.34 3 2.68 3 2 C2.01 1.67 1.02 1.34 0 1 C0 0.67 0 0.34 0 0 Z " fill="#ABC93F" transform="translate(425,360)"/>
<path d="M0 0 C2.1875 -0.3125 2.1875 -0.3125 5 0 C7.8125 2.5 7.8125 2.5 10 5 C9.01 5.495 9.01 5.495 8 6 C8 5.34 8 4.68 8 4 C6.8553125 4.12375 6.8553125 4.12375 5.6875 4.25 C3 4 3 4 1.1875 2 C0.5996875 1.01 0.5996875 1.01 0 0 Z " fill="#BBE031" transform="translate(410,274)"/>
<path d="M0 0 C1.98 1.65 3.96 3.3 6 5 C5.6875 6.875 5.6875 6.875 5 9 C4.01 9.66 3.02 10.32 2 11 C2 10.01 2 9.02 2 8 C2.66 8 3.32 8 4 8 C4 7.01 4 6.02 4 5 C3.01 4.67 2.02 4.34 1 4 C0.3125 1.9375 0.3125 1.9375 0 0 Z " fill="#BAD652" transform="translate(542,247)"/>
<path d="M0 0 C1 2 1 2 1 5 C1.66 5.33 2.32 5.66 3 6 C2.67 6.99 2.34 7.98 2 9 C0.35 8.01 -1.3 7.02 -3 6 C-2.42655063 3.13275314 -2.1385485 2.1385485 0 0 Z " fill="#CDF625" transform="translate(248,480)"/>
<path d="M0 0 C1.32 0.33 2.64 0.66 4 1 C0.04 4.465 0.04 4.465 -4 8 C-4.33 6.68 -4.66 5.36 -5 4 C-4.01 4 -3.02 4 -2 4 C-1.34 2.68 -0.68 1.36 0 0 Z " fill="#A8C637" transform="translate(355,444)"/>
<path d="M0 0 C-1.15093722 3.45281166 -2.3205993 4.38082163 -5.0625 6.6875 C-5.79597656 7.31011719 -6.52945312 7.93273437 -7.28515625 8.57421875 C-7.85105469 9.04472656 -8.41695313 9.51523437 -9 10 C-9.66 9.67 -10.32 9.34 -11 9 C-9.54782324 7.49403892 -8.08807139 5.99537896 -6.625 4.5 C-5.40683594 3.24703125 -5.40683594 3.24703125 -4.1640625 1.96875 C-2 0 -2 0 0 0 Z " fill="#C8F719" transform="translate(289,441)"/>
<path d="M0 0 C3.87051275 3.07881696 7.02911382 6.00073014 10 10 C9.01 10.495 9.01 10.495 8 11 C8 10.34 8 9.68 8 9 C7.01 8.67 6.02 8.34 5 8 C0 2.53488372 0 2.53488372 0 0 Z " fill="#AAC843" transform="translate(284,295)"/>
<path d="M0 0 C1.65 0 3.3 0 5 0 C4.01 1.485 4.01 1.485 3 3 C2.34 3 1.68 3 1 3 C1 3.99 1 4.98 1 6 C0.34 6 -0.32 6 -1 6 C-1 6.66 -1 7.32 -1 8 C-1.66 8 -2.32 8 -3 8 C-1.125 2.25 -1.125 2.25 0 0 Z " fill="#CAF916" transform="translate(505,289)"/>
<path d="M0 0 C0.66 0 1.32 0 2 0 C2.33 2.64 2.66 5.28 3 8 C1.35 6.68 -0.3 5.36 -2 4 C-1.34 2.68 -0.68 1.36 0 0 Z " fill="#ACC449" transform="translate(320,250)"/>
<path d="M0 0 C2.475 0.99 2.475 0.99 5 2 C5 2.66 5 3.32 5 4 C5.99 4.33 6.98 4.66 8 5 C8.6875 7.0625 8.6875 7.0625 9 9 C7.87105124 8.06725891 6.74699124 7.12859878 5.625 6.1875 C4.99851562 5.66542969 4.37203125 5.14335937 3.7265625 4.60546875 C2 3 2 3 0 0 Z " fill="#BBDC46" transform="translate(397,483)"/>
<path d="M0 0 C1.17539996 0.92652701 2.34010577 1.86663387 3.5 2.8125 C4.1496875 3.33457031 4.799375 3.85664063 5.46875 4.39453125 C7 6 7 6 7 9 C0.70535714 4.17857143 0.70535714 4.17857143 0 0 Z " fill="#ADC946" transform="translate(446,457)"/>
<path d="M0 0 C0.99 0 1.98 0 3 0 C2.6875 2.375 2.6875 2.375 2 5 C1.01 5.66 0.02 6.32 -1 7 C-1.04254356 5.00045254 -1.04080783 2.99958364 -1 1 C-0.67 0.67 -0.34 0.34 0 0 Z " fill="#C3EB2B" transform="translate(516,434)"/>
<path d="M0 0 C2 0 2 0 3.625 1.5625 C5.45512039 4.80680433 5.21131282 7.33724439 5 11 C3 10 3 10 2.1484375 7.71484375 C1.89320313 6.79832031 1.63796875 5.88179688 1.375 4.9375 C1.11460937 4.01839844 0.85421875 3.09929687 0.5859375 2.15234375 C0.39257812 1.44207031 0.19921875 0.73179687 0 0 Z " fill="#C1EF21" transform="translate(316,399)"/>
<path d="M0 0 C0.33 0.66 0.66 1.32 1 2 C0.67 2.99 0.34 3.98 0 5 C0.9590625 5.433125 0.9590625 5.433125 1.9375 5.875 C4 7 4 7 5 9 C3.02 8.34 1.04 7.68 -1 7 C-1.625 4.625 -1.625 4.625 -2 2 C-1.34 1.34 -0.68 0.68 0 0 Z " fill="#C9F034" transform="translate(247,326)"/>
<path d="M0 0 C1.12894876 0.93274109 2.25300876 1.87140122 3.375 2.8125 C4.00148438 3.33457031 4.62796875 3.85664063 5.2734375 4.39453125 C7 6 7 6 9 9 C7.68 9 6.36 9 5 9 C2.71117081 6.05721961 1.17960932 3.53882795 0 0 Z " fill="#C2E053" transform="translate(420,280)"/>
<path d="M0 0 C0.99 0 1.98 0 3 0 C3.33 1.32 3.66 2.64 4 4 C4.66 4 5.32 4 6 4 C6 4.66 6 5.32 6 6 C4.02 5.34 2.04 4.68 0 4 C0 2.68 0 1.36 0 0 Z " fill="#C5EB2D" transform="translate(323,255)"/>
<path d="M0 0 C0.33 0.66 0.66 1.32 1 2 C0.67 2.99 0.34 3.98 0 5 C-0.66 5 -1.32 5 -2 5 C-2 5.66 -2 6.32 -2 7 C-3.65 7.33 -5.3 7.66 -7 8 C-6.02133662 6.85373678 -5.04205413 5.70800212 -4.0625 4.5625 C-3.51722656 3.92441406 -2.97195313 3.28632813 -2.41015625 2.62890625 C-1.63204305 1.73008851 -0.84063472 0.84063472 0 0 Z " fill="#BDE13C" transform="translate(347,224)"/>
<path d="M0 0 C0.66 0 1.32 0 2 0 C2 1.65 2 3.3 2 5 C0.68 5.33 -0.64 5.66 -2 6 C-1.125 1.125 -1.125 1.125 0 0 Z " fill="#C4EC29" transform="translate(292,504)"/>
<path d="M0 0 C1.98 1.65 3.96 3.3 6 5 C5.67 5.66 5.34 6.32 5 7 C3.68 6.67 2.36 6.34 1 6 C0.67 4.02 0.34 2.04 0 0 Z " fill="#B2D53A" transform="translate(399,410)"/>
<path d="M0 0 C1 2 1 2 0.375 4 C-1.39265071 6.57112831 -3.07589059 7.07659703 -6 8 C-4.55746343 4.63408134 -2.66735273 2.48952921 0 0 Z " fill="#1F2B06" transform="translate(545,411)"/>
<path d="M0 0 C1.98 0 3.96 0 6 0 C6.66 1.65 7.32 3.3 8 5 C4.75791433 4.64950425 3.38472296 4.43778819 1.1875 1.9375 C0.795625 1.298125 0.40375 0.65875 0 0 Z " fill="#010801" transform="translate(503,361)"/>
<path d="M0 0 C1.98 1.65 3.96 3.3 6 5 C3.92446352 5.5534764 2.15634036 6 0 6 C0 4.02 0 2.04 0 0 Z " fill="#B2D238" transform="translate(344,355)"/>
<path d="M0 0 C2.4375 0.6875 2.4375 0.6875 5 2 C5.8125 4.625 5.8125 4.625 6 7 C5.01 7 4.02 7 3 7 C0 2.77777778 0 2.77777778 0 0 Z " fill="#CAF71F" transform="translate(289,303)"/>
<path d="M0 0 C2.64 0.66 5.28 1.32 8 2 C7.67 2.99 7.34 3.98 7 5 C4.11424181 4.60196439 3.17810487 4.20990931 1.25 1.9375 C0.8375 1.298125 0.425 0.65875 0 0 Z " fill="#B6D350" transform="translate(275,516)"/>
<path d="M0 0 C2.31 0 4.62 0 7 0 C6.34 1.32 5.68 2.64 5 4 C1.125 2.25 1.125 2.25 0 0 Z " fill="#C6EE2D" transform="translate(490,424)"/>
<path d="M0 0 C0.99 0.33 1.98 0.66 3 1 C2.6875 2.875 2.6875 2.875 2 5 C1.01 5.66 0.02 6.32 -1 7 C-1.04254356 5.00045254 -1.04080783 2.99958364 -1 1 C-0.67 0.67 -0.34 0.34 0 0 Z " fill="#C5EE2F" transform="translate(534,416)"/>
<path d="M0 0 C-0.33 1.32 -0.66 2.64 -1 4 C-2.32 4.33 -3.64 4.66 -5 5 C-5 3.68 -5 2.36 -5 1 C-2 0 -2 0 0 0 Z " fill="#C6EC2F" transform="translate(496,304)"/>
<path d="M0 0 C1.1446875 0.556875 1.1446875 0.556875 2.3125 1.125 C3.6428125 1.558125 3.6428125 1.558125 5 2 C5.99 1.34 6.98 0.68 8 0 C7.67 1.32 7.34 2.64 7 4 C5.35 4 3.7 4 2 4 C1.67 4.66 1.34 5.32 1 6 C0.67 4.02 0.34 2.04 0 0 Z " fill="#AFD234" transform="translate(429,289)"/>
<path d="M0 0 C2.475 0.495 2.475 0.495 5 1 C5 1.66 5 2.32 5 3 C5.66 3.33 6.32 3.66 7 4 C6.67 4.99 6.34 5.98 6 7 C4.02 4.69 2.04 2.38 0 0 Z " fill="#0D1A00" transform="translate(391,250)"/>
<path d="M0 0 C2.31 0.33 4.62 0.66 7 1 C7.33 2.32 7.66 3.64 8 5 C2.25 3.375 2.25 3.375 0 0 Z " fill="#CBFA19" transform="translate(519,230)"/>
<path d="M0 0 C2.475 0.495 2.475 0.495 5 1 C5.66 2.98 6.32 4.96 7 7 C3.17053157 5.54744301 1.87949705 3.57104439 0 0 Z " fill="#C9F817" transform="translate(266,504)"/>
<path d="M0 0 C0.99 0 1.98 0 3 0 C2.6875 2.375 2.6875 2.375 2 5 C1.01 5.66 0.02 6.32 -1 7 C-0.67 4.69 -0.34 2.38 0 0 Z " fill="#BDE135" transform="translate(323,473)"/>
<path d="M0 0 C2.31 1.98 4.62 3.96 7 6 C6.34 6.66 5.68 7.32 5 8 C0 2.25 0 2.25 0 0 Z " fill="#ACC842" transform="translate(428,439)"/>
<path d="M0 0 C2.64 0.33 5.28 0.66 8 1 C7.67 2.65 7.34 4.3 7 6 C6.67 5.34 6.34 4.68 6 4 C5.0409375 3.7834375 5.0409375 3.7834375 4.0625 3.5625 C2 3 2 3 0 0 Z " fill="#C7F912" transform="translate(443,375)"/>
<path d="M0 0 C2.31 1.98 4.62 3.96 7 6 C6.34 6.66 5.68 7.32 5 8 C4.67 7.01 4.34 6.02 4 5 C1.99983534 3.79117904 1.99983534 3.79117904 0 3 C0 2.01 0 1.02 0 0 Z " fill="#AECD46" transform="translate(482,341)"/>
<path d="M0 0 C2.375 0.3125 2.375 0.3125 5 1 C5.66 1.99 6.32 2.98 7 4 C6.67 4.99 6.34 5.98 6 7 C4.02 4.69 2.04 2.38 0 0 Z " fill="#BADB43" transform="translate(248,334)"/>
<path d="M0 0 C1.32 0.33 2.64 0.66 4 1 C1.03 3.475 1.03 3.475 -2 6 C-2 3 -2 3 0 0 Z " fill="#111B01" transform="translate(252,315)"/>
<path d="M0 0 C1.32 0 2.64 0 4 0 C4.33 1.98 4.66 3.96 5 6 C3.2925002 4.71937515 1.62626404 3.38232443 0 2 C0 1.34 0 0.68 0 0 Z " fill="#ABCD38" transform="translate(377,311)"/>
<path d="M0 0 C0.66 0.33 1.32 0.66 2 1 C-0.84936103 4.00765886 -3.23511958 6.27845212 -7 8 C-6.02133662 6.85373678 -5.04205413 5.70800212 -4.0625 4.5625 C-3.51722656 3.92441406 -2.97195313 3.28632813 -2.41015625 2.62890625 C-1.63204305 1.73008851 -0.84063472 0.84063472 0 0 Z " fill="#CCF71A" transform="translate(491,237)"/>
<path d="M0 0 C0.66 1.32 1.32 2.64 2 4 C0.625 5.5 0.625 5.5 -1 7 C-1.66 7 -2.32 7 -3 7 C-1.125 1.125 -1.125 1.125 0 0 Z " fill="#010601" transform="translate(508,212)"/>
<path d="M0 0 C1.485 0.99 1.485 0.99 3 2 C3 2.66 3 3.32 3 4 C3.66 4 4.32 4 5 4 C5 4.66 5 5.32 5 6 C5.66 6.33 6.32 6.66 7 7 C5.68 7 4.36 7 3 7 C2.896875 6.360625 2.79375 5.72125 2.6875 5.0625 C2.460625 4.381875 2.23375 3.70125 2 3 C1.01 2.67 0.02 2.34 -1 2 C-0.67 1.34 -0.34 0.68 0 0 Z " fill="#CAFA12" transform="translate(405,486)"/>
<path d="M0 0 C2.91517292 1.07401108 4.77810176 1.77810176 7 4 C6.67 4.99 6.34 5.98 6 7 C4.02 4.69 2.04 2.38 0 0 Z " fill="#BADB45" transform="translate(384,470)"/>
<path d="M0 0 C2.475 0.495 2.475 0.495 5 1 C5.33 2.65 5.66 4.3 6 6 C3.97945196 4.35830472 1.97956942 2.69088222 0 1 C0 0.67 0 0.34 0 0 Z " fill="#C5E93F" transform="translate(484,418)"/>
<path d="M0 0 C0.99 0 1.98 0 3 0 C3 0.66 3 1.32 3 2 C3.99 2.33 4.98 2.66 6 3 C6 3.66 6 4.32 6 5 C4.125 4.75 4.125 4.75 2 4 C0.75 1.9375 0.75 1.9375 0 0 Z " fill="#C5EE34" transform="translate(446,379)"/>
<path d="M0 0 C3.36720387 1.39332574 4.9859524 2.9789286 7 6 C3.75728494 5.4409112 2.06942576 4.5867822 0 2 C0 1.34 0 0.68 0 0 Z " fill="#B5D448" transform="translate(503,363)"/>
<path d="M0 0 C2.91517292 1.07401108 4.77810176 1.77810176 7 4 C6.67 4.99 6.34 5.98 6 7 C4.02 4.69 2.04 2.38 0 0 Z " fill="#B9DB45" transform="translate(258,344)"/>
<path d="M0 0 C2.31 1.98 4.62 3.96 7 6 C6.34 6.66 5.68 7.32 5 8 C5 7.34 5 6.68 5 6 C4.360625 5.7525 3.72125 5.505 3.0625 5.25 C1 4 1 4 0 0 Z " fill="#AAC643" transform="translate(309,320)"/>
<path d="M0 0 C0.66 0.33 1.32 0.66 2 1 C1 3 0 5 -1 7 C-1.99 6.67 -2.98 6.34 -4 6 C-2.68 4.02 -1.36 2.04 0 0 Z " fill="#C9F913" transform="translate(489,306)"/>
<path d="M0 0 C1.32 1.32 2.64 2.64 4 4 C1.625 4.625 1.625 4.625 -1 5 C-1.66 4.34 -2.32 3.68 -3 3 C-2.01 2.01 -1.02 1.02 0 0 Z " fill="#B4CE51" transform="translate(280,291)"/>
<path d="M0 0 C1.875 0.8125 1.875 0.8125 2.875 2.8125 C1.555 2.4825 0.235 2.1525 -1.125 1.8125 C-1.125 2.4725 -1.125 3.1325 -1.125 3.8125 C-2.445 3.4825 -3.765 3.1525 -5.125 2.8125 C-2.68543956 -0.23695055 -2.68543956 -0.23695055 0 0 Z " fill="#A7C04D" transform="translate(511.125,216.1875)"/>
</svg>
