<?xml version="1.0" encoding="UTF-8"?>
<svg version="1.1" xmlns="http://www.w3.org/2000/svg" width="1024" height="918">
<path d="M0 0 C337.92 0 675.84 0 1024 0 C1024 302.94 1024 605.88 1024 918 C686.08 918 348.16 918 0 918 C0 615.06 0 312.12 0 0 Z " fill="#FEFEFE" transform="translate(0,0)"/>
<path d="M0 0 C3.05302402 0.62534127 6.10880628 1.07456177 9.19384766 1.5144043 C15.36139965 2.43418688 21.24573649 3.85213641 27.22119141 5.61987305 C28.24075928 5.91861328 29.26032715 6.21735352 30.31079102 6.52514648 C40.05996066 9.48405604 49.32628341 13.36055403 58.58325195 17.59082031 C60.5310627 18.47141672 62.49083415 19.30833633 64.46337891 20.1315918 C80.11740505 26.98257446 94.09815163 38.18472872 106.72119141 49.55737305 C107.69572266 50.43522461 108.67025391 51.31307617 109.67431641 52.2175293 C118.97355318 60.92197521 126.3756537 71.19844294 133.72119141 81.55737305 C134.60145996 82.78254639 134.60145996 82.78254639 135.49951172 84.0324707 C136.32467285 85.21462158 136.32467285 85.21462158 137.16650391 86.4206543 C137.65908691 87.12101807 138.15166992 87.82138184 138.65917969 88.54296875 C139.72119141 90.55737305 139.72119141 90.55737305 139.72119141 94.55737305 C140.38119141 94.55737305 141.04119141 94.55737305 141.72119141 94.55737305 C143.34806659 98.11901963 144.97235993 101.68183787 146.59619141 105.24487305 C147.28648437 106.75597656 147.28648437 106.75597656 147.99072266 108.29760742 C148.43544922 109.27407227 148.88017578 110.25053711 149.33837891 111.2565918 C149.74685059 112.1520874 150.15532227 113.04758301 150.57617188 113.97021484 C152.49142151 118.29769893 154.01944932 122.44638342 155.09619141 127.05737305 C156.12149701 131.28163213 157.27301035 135.41709685 158.59619141 139.55737305 C163.50275902 155.22064657 167.38239943 171.07491781 168.37744141 187.4753418 C168.6608934 191.33162961 169.19743399 195.13286085 169.75927734 198.95727539 C180.38796006 271.47399697 179.85386029 363.75768007 143.70361328 429.73364258 C142.71358159 431.57149961 141.78267684 433.43010961 140.86181641 435.3034668 C135.90525749 445.24239333 129.65217059 453.90137304 122.72119141 462.55737305 C122.12822266 463.30245117 121.53525391 464.0475293 120.92431641 464.81518555 C119.25455415 466.80340762 117.51690468 468.68110441 115.72119141 470.55737305 C115.20186035 471.10248535 114.6825293 471.64759766 114.14746094 472.20922852 C106.52056842 480.16763497 98.95546997 487.46003323 89.72119141 493.55737305 C88.80337891 494.20834961 87.88556641 494.85932617 86.93994141 495.5300293 C75.68100648 503.38404438 63.24009989 509.01934743 50.72119141 514.55737305 C49.58681641 515.09362305 48.45244141 515.62987305 47.28369141 516.18237305 C43.42246906 517.67266939 39.61859141 518.65674055 35.59619141 519.61206055 C32.56230321 520.35218246 29.54902974 521.12994895 26.53369141 521.94018555 C17.10026591 524.47002207 7.67687002 526.89663018 -1.90380859 528.80737305 C-2.65919922 528.95811279 -3.41458984 529.10885254 -4.19287109 529.26416016 C-15.08613063 531.36456404 -25.96060125 532.85802364 -37.02880859 533.61987305 C-38.20870361 533.70221191 -39.38859863 533.78455078 -40.60424805 533.86938477 C-44.1618201 534.10990607 -47.71993922 534.33694815 -51.27880859 534.55737305 C-52.2364209 534.61812012 -53.1940332 534.67886719 -54.18066406 534.74145508 C-102.39888766 537.64199466 -151.86625694 537.35933628 -199.27880859 527.55737305 C-200.35759277 527.33645996 -201.43637695 527.11554687 -202.54785156 526.88793945 C-213.17688117 524.66171823 -223.35871971 521.72568595 -233.51708984 517.8894043 C-237.25922524 516.48566326 -237.25922524 516.48566326 -241.17333984 515.65112305 C-245.97852234 514.50514161 -250.23660141 512.4158919 -254.65380859 510.24487305 C-255.49451904 509.8368042 -256.33522949 509.42873535 -257.20141602 509.00830078 C-258.84598511 508.20889068 -260.48919955 507.40668601 -262.13085938 506.60131836 C-263.82357823 505.7786239 -265.53114542 504.98647905 -267.24365234 504.20581055 C-281.35470129 497.67856993 -294.60737247 486.70001544 -305.27880859 475.55737305 C-306.06255859 474.79424805 -306.84630859 474.03112305 -307.65380859 473.24487305 C-325.7555787 454.71210841 -339.75046648 431.99315622 -348.27880859 407.55737305 C-348.60316895 406.62812012 -348.9275293 405.69886719 -349.26171875 404.74145508 C-355.57677498 386.51018818 -360.40733421 368.85581331 -362.86816406 349.71459961 C-363.32273445 346.21965059 -363.80232972 342.72855204 -364.28271484 339.23706055 C-369.77640826 298.81627192 -370.30371611 259.19324495 -367.27880859 218.55737305 C-367.20936035 217.61732422 -367.13991211 216.67727539 -367.06835938 215.70874023 C-365.8921621 200.75038406 -363.26947002 185.92146367 -360.85742188 171.12231445 C-360.38139718 168.18943991 -359.91835249 165.25512539 -359.46240234 162.3190918 C-356.68871912 144.92724334 -350.73070745 128.87415491 -344.27880859 112.55737305 C-343.9459082 111.69958252 -343.61300781 110.84179199 -343.27001953 109.95800781 C-336.36490591 92.32995325 -326.17305838 76.56355193 -313.72412109 62.36206055 C-312.167282 60.57642082 -310.64893162 58.7559251 -309.18505859 56.89331055 C-307.45235949 54.77004403 -305.7432119 53.06780647 -303.65380859 51.30737305 C-301.40826848 49.39969401 -299.20367354 47.48621339 -297.06396484 45.4597168 C-290.59671291 39.35833269 -283.65190724 34.50291982 -276.1640625 29.76733398 C-274.44312604 28.66283242 -272.75534935 27.50709542 -271.07177734 26.34643555 C-236.16582228 3.40705345 -189.96057565 -2.63089874 -149.27880859 -6.44262695 C-148.19583496 -6.54559082 -147.11286133 -6.64855469 -145.99707031 -6.75463867 C-98.10271867 -11.09620026 -47.02893039 -10.58347653 0 0 Z " fill="#090909" transform="translate(543.27880859375,182.442626953125)"/>
<path d="M0 0 C4.08496751 1.87093154 6.84508228 4.61970418 9.9375 7.8125 C10.44990234 8.33392578 10.96230469 8.85535156 11.49023438 9.39257812 C12.46063065 10.38023685 13.42893707 11.36995727 14.39428711 12.36254883 C16.06691938 14.0682421 17.75508282 15.75784254 19.4455719 17.44581604 C21.32259561 19.32254495 23.19552156 21.2033223 25.06835938 23.08422852 C29.29819573 27.33192792 33.53113628 31.57651984 37.76513672 35.82006836 C39.5892743 37.64925399 41.41251605 39.47933343 43.23486328 41.31030273 C45.87296266 43.96053842 48.51428428 46.60752552 51.15625 49.25390625 C51.96783569 50.07065323 52.77942139 50.88740021 53.61560059 51.72889709 C57.26909565 55.38275322 60.88691353 58.85676062 65 62 C66.20163834 63.28055951 67.37082464 64.59260953 68.5 65.9375 C71.21175857 69.11209701 74.0035289 72.09433105 77 75 C81.91946674 73.58801412 84.56642328 70.55740885 87.8125 66.8125 C91.7322825 62.41679112 95.67943252 58.38624707 100.20703125 54.60546875 C102.80777048 52.27670225 104.97073559 49.6252761 107.22265625 46.96484375 C109.01665461 44.98158842 110.89513611 43.2863666 112.9375 41.5625 C116.59723752 38.46688387 119.6787954 35.08072693 122.75 31.40625 C124.64192338 29.38294305 126.53755842 27.62885702 128.6328125 25.828125 C133.61353193 21.53320699 138.23727483 16.90932948 142.875 12.25 C144.15503906 10.97576172 144.15503906 10.97576172 145.4609375 9.67578125 C146.275625 8.85980469 147.0903125 8.04382813 147.9296875 7.203125 C148.66429199 6.46739258 149.39889648 5.73166016 150.15576172 4.97363281 C152.16055614 2.93552057 152.16055614 2.93552057 154 0 C157.57696762 0.58031875 159.2327009 1.8654407 161.75878906 4.41821289 C162.47923401 5.13888443 163.19967896 5.85955597 163.94195557 6.60206604 C164.70876648 7.38436081 165.47557739 8.16665558 166.265625 8.97265625 C167.05902283 9.77029892 167.85242065 10.56794159 168.66986084 11.38975525 C171.20369398 13.94038847 173.72690105 16.50125226 176.25 19.0625 C177.9654564 20.79300142 179.68159405 22.5228278 181.3984375 24.25195312 C185.60689643 28.49349906 189.80667651 32.74349298 194 37 C189.83174662 41.9721262 185.49244504 46.64720445 180.89306641 51.22045898 C180.20944031 51.90423111 179.52581421 52.58800323 178.82147217 53.29249573 C176.583867 55.52940983 174.34275155 57.76277089 172.1015625 59.99609375 C170.54050184 61.55528737 168.97966327 63.11470339 167.41903687 64.67433167 C163.32779371 68.7617722 159.23355542 72.8461996 155.13867188 76.92999268 C150.9539051 81.1044967 146.77199759 85.28186292 142.58984375 89.45898438 C134.39601449 97.64211611 126.19901608 105.82206539 118 114 C122.13387486 118.93764622 126.43738526 123.55569678 131.03100586 128.06518555 C132.04422409 129.06657562 132.04422409 129.06657562 133.07791138 130.0881958 C134.5320829 131.52527875 135.98729862 132.96130573 137.44346428 134.39636803 C140.53642951 137.44708103 143.61993554 140.50728047 146.70405674 143.56692982 C152.43643945 149.2536269 158.17265748 154.93631993 163.92504883 160.6027832 C167.9367592 164.55528661 171.93630859 168.51973616 175.92794991 172.49250221 C177.45097222 174.00375182 178.97852771 175.51044676 180.51060295 177.01251793 C182.6435615 179.10470715 184.7607001 181.21173514 186.87475586 183.32299805 C187.51412582 183.94282059 188.15349579 184.56264313 188.8122406 185.20124817 C190.54112244 186.94657898 190.54112244 186.94657898 193 190 C192.56144905 194.65857945 189.15832913 197.41142009 186.0625 200.625 C185.45365967 201.26655029 184.84481934 201.90810059 184.2175293 202.5690918 C178.98409002 208.04996573 173.65714379 213.440287 168.3125 218.8125 C167.14569702 219.98643311 167.14569702 219.98643311 165.95532227 221.18408203 C165.22369873 221.91353027 164.4920752 222.64297852 163.73828125 223.39453125 C163.08899658 224.04268799 162.43971191 224.69084473 161.77075195 225.35864258 C160 227 160 227 157 229 C154.8125 228.625 154.8125 228.625 153 228 C153 227.34 153 226.68 153 226 C152.4023584 225.73356689 151.8047168 225.46713379 151.18896484 225.19262695 C148.94865064 223.97202302 147.66447219 222.81007462 145.9765625 220.91796875 C145.15671875 220.01401367 145.15671875 220.01401367 144.3203125 219.09179688 C143.76085937 218.46337891 143.20140625 217.83496094 142.625 217.1875 C137.96950642 211.97596683 137.96950642 211.97596683 132.796875 207.29296875 C130.41753334 205.34230736 128.56011663 203.49232541 126.625 201.125 C123.73376436 197.73505777 120.65366807 194.88117048 117.265625 192 C114.41739645 189.48570169 111.70132057 186.85798556 109 184.1875 C108.50661133 183.70692139 108.01322266 183.22634277 107.50488281 182.73120117 C106.29646313 181.52641615 105.14302661 180.26699457 104 179 C104 178.34 104 177.68 104 177 C103.4225 176.7525 102.845 176.505 102.25 176.25 C99.67060021 174.81700012 97.93878408 173.21575324 96 171 C96 170.34 96 169.68 96 169 C95.01 168.67 94.02 168.34 93 168 C90.3125 165.5625 90.3125 165.5625 88 163 C88 162.34 88 161.68 88 161 C87.360625 160.731875 86.72125 160.46375 86.0625 160.1875 C84 159 84 159 83 156 C81.6723449 155.32209577 80.33774877 154.65776169 79 154 C77.32432768 152.50332523 75.70215139 150.94609544 74.11517334 149.35568237 C73.63806357 148.88028145 73.16095379 148.40488053 72.66938615 147.91507351 C71.07395446 146.32293269 69.48577032 144.72375541 67.89746094 143.12451172 C66.75445795 141.98094453 65.61101427 140.83781767 64.46716309 139.69509888 C61.36383097 136.59234093 58.26670692 133.48345212 55.17064953 130.3734374 C51.93376811 127.12405936 48.69122771 123.88033856 45.44927979 120.63601685 C39.31135137 114.49187053 33.17853932 108.34264344 27.04754281 102.19158089 C20.06724773 95.18893648 13.08127747 88.19196555 6.09482145 81.19546866 C-8.27644899 66.8032892 -22.6405669 52.40398925 -37 38 C-35.5642576 34.98299881 -34.35984382 33.22279814 -31.75 31.12109375 C-25.11734353 25.50642411 -19.11857194 19.22361776 -13 13.0625 C-11.7359115 11.79338627 -10.47159044 10.52450411 -9.20703125 9.25585938 C-6.13533276 6.1732368 -3.06679992 3.08749572 0 0 Z " fill="#C6F904" transform="translate(405,294)"/>
<path d="M0 0 C5.22367396 4.36787686 10.09971463 8.95956695 14.90306091 13.7828064 C15.66858263 14.54747368 16.43410434 15.31214097 17.22282368 16.09998 C19.77389383 18.64940992 22.32138579 21.20238477 24.86889648 23.75537109 C26.70220315 25.58895997 28.53573032 27.4223284 30.36946106 29.25549316 C34.31012755 33.19563675 38.24896725 37.13759881 42.18655205 41.08082199 C47.87955567 46.7819723 53.57533725 52.48034065 59.27178825 58.17804618 C68.51510084 67.42354431 77.75618069 76.67127076 86.99584961 85.92041016 C95.96830678 94.90205432 104.94181958 103.88264166 113.91674805 112.86181641 C114.47049016 113.41582124 115.02423227 113.96982608 115.59475445 114.54061894 C118.37288003 117.32004961 121.15102631 120.09945959 123.92918289 122.87885928 C146.95599891 145.91603242 169.97918839 168.95682668 193 192 C191.52098571 195.09132822 190.01990343 197.23256535 187.59179688 199.66699219 C186.897677 200.36741638 186.20355713 201.06784058 185.48840332 201.78948975 C184.73941772 202.53442688 183.99043213 203.27936401 183.21875 204.046875 C182.44946167 204.81807678 181.68017334 205.58927856 180.88757324 206.3838501 C179.26263173 208.01015129 177.63516701 209.63393476 176.00537109 211.25537109 C173.50254825 213.74746268 171.01059437 216.25006592 168.51953125 218.75390625 C166.94074532 220.33137112 165.36133939 221.90821577 163.78125 223.484375 C163.0322644 224.23740906 162.28327881 224.99044312 161.51159668 225.76629639 C160.47041687 226.79801971 160.47041687 226.79801971 159.40820312 227.85058594 C158.79690552 228.46029236 158.18560791 229.06999878 157.55578613 229.69818115 C156 231 156 231 154 231 C152.52082729 229.50138092 152.52082729 229.50138092 150.81480408 227.44689941 C147.36428085 223.39192387 143.73752021 219.60177388 139.96313477 215.84960938 C138.96673729 214.85299286 138.96673729 214.85299286 137.95021057 213.83624268 C135.7829744 211.66969579 133.61223229 209.50669938 131.44140625 207.34375 C129.926615 205.83082644 128.41204632 204.31768 126.89768982 202.80432129 C122.9330512 198.84348026 118.96541749 194.88565298 114.99713135 190.9284668 C110.93961743 186.88122661 106.88497254 182.83111435 102.83007812 178.78125 C94.88950839 170.85136888 86.9457684 162.92467179 79 155 C76.05790165 156.32710259 73.98385569 157.76789991 71.70965576 160.04983521 C71.0815097 160.67523193 70.45336365 161.30062866 69.80618286 161.94497681 C69.12860931 162.62974091 68.45103577 163.314505 67.75292969 164.02001953 C67.03058136 164.74207581 66.30823303 165.46413208 65.56399536 166.20806885 C63.17851721 168.59493989 60.80020061 170.9888162 58.421875 173.3828125 C56.76892998 175.03948779 55.11554273 176.69572195 53.46173096 178.35153198 C49.11063912 182.71025917 44.76558687 187.07495924 40.42175293 191.44091797 C35.98791629 195.89521505 31.54841091 200.34385418 27.109375 204.79296875 C18.4006834 213.52310855 9.69835992 222.25956694 1 231 C-6.36475888 224.7623583 -6.36475888 224.7623583 -9.64038086 221.47314453 C-10.26049545 220.85295441 -10.88061005 220.23276428 -11.51951599 219.59378052 C-12.16147415 218.94666107 -12.80343231 218.29954163 -13.46484375 217.6328125 C-14.14301651 216.95322479 -14.82118927 216.27363708 -15.51991272 215.57345581 C-17.66149141 213.42632998 -19.79954529 211.27573373 -21.9375 209.125 C-23.39885589 207.65862227 -24.86044226 206.1924742 -26.32226562 204.7265625 C-29.88417935 201.15369 -33.44293865 197.57770316 -37 194 C-35.09929699 189.85762009 -32.29224202 187.03809281 -29.07421875 183.87890625 C-28.4896138 183.2971312 -27.90500885 182.71535614 -27.3026886 182.11595154 C-25.43561298 180.26004158 -23.56171566 178.41119648 -21.6875 176.5625 C-20.4376908 175.32272942 -19.18833682 174.08249975 -17.93945312 172.84179688 C-15.6339166 170.55255606 -13.32574236 168.26604865 -11.0144043 165.98266602 C-8.33242117 163.33223501 -5.66495511 160.66755817 -3 158 C-1.85337891 156.87078125 -1.85337891 156.87078125 -0.68359375 155.71875 C3.88961069 151.22819212 3.88961069 151.22819212 8.0625 146.375 C9.83190562 144.20605118 11.5592783 142.61105599 13.6875 140.8125 C16.90353032 138.07380257 19.71200208 135.17321352 22.5 132 C25.87079516 128.16849063 29.36304573 124.7474082 33.2734375 121.47265625 C34.12808594 120.74369141 34.12808594 120.74369141 35 120 C35.59039062 119.52433594 36.18078125 119.04867187 36.7890625 118.55859375 C37.18867188 118.04425781 37.58828125 117.52992188 38 117 C37.57738046 113.68557744 36.40473319 112.03212033 34.07041931 109.70965576 C33.44639725 109.0815097 32.82237518 108.45336365 32.17944336 107.80618286 C31.49108398 107.12860931 30.80272461 106.45103577 30.09350586 105.75292969 C29.37159561 105.03058136 28.64968536 104.30823303 27.90589905 103.56399536 C25.51592217 101.17610992 23.11549153 98.79902831 20.71484375 96.421875 C19.05652219 94.7691481 17.39886136 93.11575798 15.74183655 91.46173096 C11.37706095 87.10841424 7.00335136 82.76418126 2.62774658 78.42175293 C-1.8349597 73.98972478 -6.28919424 69.5492007 -10.74414062 65.109375 C-19.4878039 56.39789433 -28.24092494 47.6959826 -37 39 C-35.51558828 35.89449692 -34.01111683 33.76643254 -31.56005859 31.33300781 C-30.85948334 30.63258362 -30.15890808 29.93215942 -29.43710327 29.21051025 C-28.68184357 28.46557312 -27.92658386 27.72063599 -27.1484375 26.953125 C-26.37440582 26.18192322 -25.60037415 25.41072144 -24.80288696 24.6161499 C-22.33158077 22.15603144 -19.85340817 19.70296152 -17.375 17.25 C-15.69745948 15.58249106 -14.02037055 13.91452768 -12.34375 12.24609375 C-8.23438978 8.15877528 -4.11897411 4.07762719 0 0 Z " fill="#C6F904" transform="translate(330,369)"/>
<path d="M0 0 C5.0743445 4.2492875 9.83009549 8.69105485 14.49584961 13.38232422 C15.20888245 14.09521103 15.92191528 14.80809784 16.65655518 15.54258728 C18.99086557 17.87758914 21.3216231 20.21610295 23.65234375 22.5546875 C25.27879819 24.18300884 26.90547491 25.81110818 28.53236389 27.43899536 C32.79735497 31.70779016 37.05933336 35.9795804 41.32067871 40.25201416 C45.67615322 44.61774903 50.03448773 48.98062671 54.39257812 53.34375 C62.93117747 61.89304882 71.46659493 70.44551677 80 79 C78.515 79.495 78.515 79.495 77 80 C74.65861457 77.71643754 72.32833018 75.42186626 70 73.125 C69.33226562 72.47402344 68.66453125 71.82304688 67.9765625 71.15234375 C67.34492188 70.52714844 66.71328125 69.90195312 66.0625 69.2578125 C65.47597656 68.6817627 64.88945312 68.10571289 64.28515625 67.51220703 C63 66 63 66 63 64 C62.11006348 63.5968457 62.11006348 63.5968457 61.20214844 63.18554688 C58.99459967 61.99709268 57.53457118 60.79257611 55.765625 59.03125 C55.19199219 58.46019531 54.61835938 57.88914062 54.02734375 57.30078125 C53.44082031 56.70652344 52.85429687 56.11226562 52.25 55.5 C51.64800781 54.90574219 51.04601562 54.31148437 50.42578125 53.69921875 C49.85730469 53.12816406 49.28882813 52.55710937 48.703125 51.96875 C48.18395508 51.44732422 47.66478516 50.92589844 47.12988281 50.38867188 C46 49 46 49 46 47 C45.41734375 46.7421875 44.8346875 46.484375 44.234375 46.21875 C41.8197097 44.90165983 40.18259823 43.44911616 38.25 41.5 C37.32960938 40.58734375 37.32960938 40.58734375 36.390625 39.65625 C35 38 35 38 35 36 C33.8553125 35.9071875 33.8553125 35.9071875 32.6875 35.8125 C29.09256842 34.72566022 28.89965536 33.18102666 27 30 C25.31384124 28.22886946 23.58203912 26.5003288 21.8125 24.8125 C20.17120432 23.24634232 18.55675401 21.65021767 17 20 C17 19.34 17 18.68 17 18 C15.68 18 14.36 18 13 18 C11.5390625 15.78515625 11.5390625 15.78515625 10 13 C7.72867723 10.63702737 5.35627029 8.42001287 2.9609375 6.18359375 C0.94749744 3.94153599 0.57858318 2.85661409 0 0 Z " fill="#B6D639" transform="translate(430,469)"/>
<path d="M0 0 C3.30118794 0.5805321 4.91134076 1.54868099 7.234375 3.94140625 C7.80800781 4.52470703 8.38164063 5.10800781 8.97265625 5.70898438 C9.85244141 6.62647461 9.85244141 6.62647461 10.75 7.5625 C11.35199219 8.17802734 11.95398438 8.79355469 12.57421875 9.42773438 C14.05634381 10.94514813 15.5290967 12.47170596 17 14 C15.68 14.33 14.36 14.66 13 15 C8 9.25 8 9.25 8 7 C6.68 7 5.36 7 4 7 C4 6.01 4 5.02 4 4 C-0.97332197 5.50851768 -0.97332197 5.50851768 -4.2512207 9.19213867 C-6.36759842 12.5902205 -8.9812555 15.26814471 -11.8046875 18.0703125 C-12.36568146 18.63321991 -12.92667542 19.19612732 -13.50466919 19.77609253 C-14.68734208 20.96012115 -15.87252339 22.14164894 -17.06005859 23.32080078 C-18.86920904 25.11924331 -20.66744438 26.928103 -22.46484375 28.73828125 C-23.61915098 29.89126678 -24.77407851 31.04363169 -25.9296875 32.1953125 C-26.46318817 32.73286163 -26.99668884 33.27041077 -27.5463562 33.82424927 C-30.49930876 36.7407334 -33.39060428 38.96802355 -37 41 C-39.03995733 43.00698055 -39.03995733 43.00698055 -40.8125 45.1875 C-41.71935547 46.26064453 -41.71935547 46.26064453 -42.64453125 47.35546875 C-43.09183594 47.89816406 -43.53914062 48.44085938 -44 49 C-45.32 48.67 -46.64 48.34 -48 48 C-47.13117188 47.21496094 -46.26234375 46.42992187 -45.3671875 45.62109375 C-37.52411856 38.53679119 -37.52411856 38.53679119 -30.47851562 30.68041992 C-28.91455318 28.90288467 -27.25873815 27.43616944 -25.44921875 25.91015625 C-20.44499433 21.58342683 -15.79000392 16.9367353 -11.125 12.25 C-10.27164063 11.40050781 -9.41828125 10.55101562 -8.5390625 9.67578125 C-7.724375 8.85980469 -6.9096875 8.04382813 -6.0703125 7.203125 C-5.33570801 6.46739258 -4.60110352 5.73166016 -3.84423828 4.97363281 C-1.83944386 2.93552057 -1.83944386 2.93552057 0 0 Z " fill="#C5EC26" transform="translate(559,294)"/>
<path d="M0 0 C0.33 0.99 0.66 1.98 1 3 C0.31292969 3.66386719 -0.37414062 4.32773437 -1.08203125 5.01171875 C-2.43361328 6.33623047 -2.43361328 6.33623047 -3.8125 7.6875 C-4.70582031 8.55761719 -5.59914063 9.42773438 -6.51953125 10.32421875 C-9.01857884 12.83589793 -9.01857884 12.83589793 -10.50390625 15.5078125 C-12.33506638 18.55815235 -14.56655428 20.72229209 -17.125 23.1875 C-20.49301768 26.27500163 -20.49301768 26.27500163 -23 30 C-24.98 30 -26.96 30 -29 30 C-29.33 28.35 -29.66 26.7 -30 25 C-29.41863281 25.22558594 -28.83726562 25.45117188 -28.23828125 25.68359375 C-25.9559492 26.24751732 -25.9559492 26.24751732 -24.10546875 24.84765625 C-23.47253906 24.25855469 -22.83960938 23.66945313 -22.1875 23.0625 C-21.49011719 22.41410156 -20.79273438 21.76570313 -20.07421875 21.09765625 C-17.50834261 18.50278716 -15.15110345 15.77057197 -12.796875 12.984375 C-10.3414305 10.2727102 -7.61655131 7.96403828 -4.796875 5.640625 C-2.9054566 3.91367776 -1.47199933 2.08987559 0 0 Z " fill="#C2EA25" transform="translate(510,343)"/>
<path d="M0 0 C3.875 0.875 3.875 0.875 5 2 C5.5 4.625 5.5 4.625 5 8 C3.40966104 9.98792369 1.67278017 11.63264391 -0.2109375 13.34375 C-2.14839488 15.03158623 -2.14839488 15.03158623 -3.875 17.5625 C-6.49814381 20.57140025 -9.45536584 22.37441619 -12.8046875 24.5078125 C-15.59660161 26.40551925 -17.73154245 28.5120143 -20 31 C-20.66 30.67 -21.32 30.34 -22 30 C-8.7343187 15.41988381 -8.7343187 15.41988381 -2.5859375 10.33203125 C-0.94656188 8.95511724 0.58774286 7.61153269 2 6 C1.7181953 3.67511119 1.04553582 2.09107165 0 0 Z " fill="#C0E52E" transform="translate(366,480)"/>
<path d="M0 0 C6.03331362 4.98404168 11.5184171 10.41915303 17 16 C12.60831493 21.27002208 8.0573621 26.35302051 3 31 C2.67 31 2.34 31 2 31 C2.33 28.69 2.66 26.38 3 24 C4.32 24 5.64 24 7 24 C7 23.34 7 22.68 7 22 C7.66 22 8.32 22 9 22 C9 21.34 9 20.68 9 20 C9.66 20 10.32 20 11 20 C11 19.34 11 18.68 11 18 C11.66 18 12.32 18 13 18 C12.505 17.38125 12.01 16.7625 11.5 16.125 C10 14 10 14 10 12 C9.34 12 8.68 12 8 12 C8 11.34 8 10.68 8 10 C7.01 10 6.02 10 5 10 C5 8.68 5 7.36 5 6 C3.68 5.67 2.36 5.34 1 5 C0.67 3.35 0.34 1.7 0 0 Z " fill="#C3E634" transform="translate(582,315)"/>
<path d="M0 0 C4.90473901 4.11329871 9.5219528 8.38542461 14.02734375 12.9296875 C14.66112442 13.56488312 15.29490509 14.20007874 15.94789124 14.85452271 C17.94681406 16.85898716 19.94220784 18.86692214 21.9375 20.875 C23.30250133 22.24502389 24.6677336 23.61481774 26.03320312 24.984375 C29.35814211 28.32026543 32.67992353 31.65927036 36 35 C35.01 35.33 34.02 35.66 33 36 C31.49403892 34.54782324 29.99537896 33.08807139 28.5 31.625 C27.6646875 30.81289063 26.829375 30.00078125 25.96875 29.1640625 C24 27 24 27 24 25 C23.01 24.67 22.02 24.34 21 24 C21 23.34 21 22.68 21 22 C20.44828125 21.773125 19.8965625 21.54625 19.328125 21.3125 C16.31307583 19.61274074 14.18769631 17.45195184 11.75 15 C10.85796875 14.113125 9.9659375 13.22625 9.046875 12.3125 C7 10 7 10 7 8 C6.01 7.67 5.02 7.34 4 7 C3.34 6.01 2.68 5.02 2 4 C-0.58380177 3.74969023 -0.58380177 3.74969023 -3 4 C-2.01 2.68 -1.02 1.36 0 0 Z " fill="#B4D23A" transform="translate(330,369)"/>
<path d="M0 0 C4.74042214 3.95952624 9.23120477 8.08247977 13.58984375 12.45703125 C14.17923233 13.0454631 14.76862091 13.63389496 15.37586975 14.24015808 C16.60638107 15.46999481 17.83565434 16.70107144 19.0637207 17.93334961 C20.95344748 19.8284932 22.84853271 21.71816277 24.74414062 23.60742188 C25.94302962 24.80697065 27.14160892 26.00682903 28.33984375 27.20703125 C28.90847641 27.77363968 29.47710907 28.34024811 30.06297302 28.92402649 C34 32.88501282 34 32.88501282 34 34 C31.6875 34.3125 31.6875 34.3125 29 34 C27.97874897 32.34626964 26.9825783 30.67699662 26 29 C24.48006625 27.396063 22.91576175 25.833146 21.3125 24.3125 C19.83786231 22.91312293 18.39011495 21.48337214 17 20 C17 19.34 17 18.68 17 18 C16.34 18 15.68 18 15 18 C15 17.34 15 16.68 15 16 C14.44699219 15.77054687 13.89398438 15.54109375 13.32421875 15.3046875 C10.345894 13.63282117 8.23115178 11.53293398 5.8125 9.125 C4.93207031 8.26132812 4.05164063 7.39765625 3.14453125 6.5078125 C1.05548834 4.06488801 0.59935939 3.01878813 0 0 Z " fill="#B5D539" transform="translate(366,405)"/>
<path d="M0 0 C0.33 0.66 0.66 1.32 1 2 C-1.52245492 4.52245492 -4.04163033 7.03964794 -6.625 9.5 C-9.03888431 11.83759835 -9.03888431 11.83759835 -10.375 14.4375 C-12.30483192 17.48069649 -14.57873066 19.3422158 -17.37890625 21.5703125 C-19.25086359 23.09773544 -19.25086359 23.09773544 -21 26 C-22.65532623 27.01866229 -24.32260138 28.01810813 -26 29 C-27.75149165 30.58245275 -27.75149165 30.58245275 -29 32 C-29.66 31.67 -30.32 31.34 -31 31 C-26 26 -26 26 -21 21 C-20.15953125 20.15824219 -19.3190625 19.31648437 -18.453125 18.44921875 C-16.86851715 16.86713416 -15.27900098 15.28994363 -13.68359375 13.71875 C-9.87397764 9.95551183 -6.31706614 6.21012241 -3 2 C-2.01 1.34 -1.02 0.68 0 0 Z " fill="#BBD93F" transform="translate(343,511)"/>
<path d="M0 0 C6.74080425 5.52650334 12.8071129 11.69449559 18.9375 17.875 C20.01343727 18.95596274 21.08960731 20.03669383 22.16601562 21.1171875 C24.78003292 23.74212641 27.39088596 26.37018628 30 29 C29.01 29.33 28.02 29.66 27 30 C24.65861457 27.71643754 22.32833018 25.42186626 20 23.125 C19.33226562 22.47402344 18.66453125 21.82304687 17.9765625 21.15234375 C17.02910156 20.21455078 17.02910156 20.21455078 16.0625 19.2578125 C15.47597656 18.6817627 14.88945312 18.10571289 14.28515625 17.51220703 C13 16 13 16 13 14 C12.42636719 13.74992187 11.85273438 13.49984375 11.26171875 13.2421875 C8.68510819 11.82705424 6.89508704 10.19586516 4.8125 8.125 C4.11769531 7.44695312 3.42289062 6.76890625 2.70703125 6.0703125 C0.93879182 3.92576583 0.55875735 2.65747911 0 0 Z " fill="#B4D33A" transform="translate(400,439)"/>
<path d="M0 0 C0.99 0.33 1.98 0.66 3 1 C-2.94 6.94 -8.88 12.88 -15 19 C-13.35 21.31 -11.7 23.62 -10 26 C-11.65 26 -13.3 26 -15 26 C-15 25.01 -15 24.02 -15 23 C-15.66 23 -16.32 23 -17 23 C-17.33 21.02 -17.66 19.04 -18 17 C-17.01 17 -16.02 17 -15 17 C-14.67 15.35 -14.34 13.7 -14 12 C-12.68 12 -11.36 12 -10 12 C-9.938125 11.401875 -9.87625 10.80375 -9.8125 10.1875 C-8.67331318 7.12045856 -6.78922519 6.62164255 -4 5 C-1.72462308 2.42816686 -1.72462308 2.42816686 0 0 Z " fill="#C1E72D" transform="translate(538,389)"/>
<path d="M0 0 C0 3 0 3 -2.5546875 5.671875 C-4.20567424 7.22292307 -5.87502508 8.75002257 -7.55859375 10.265625 C-11.47044893 13.96067857 -12.94914365 16.70581232 -14 22 C-12.02 22.33 -10.04 22.66 -8 23 C-8 24.98 -8 26.96 -8 29 C-9.1055189 28.06409496 -10.20935453 27.12620142 -11.3125 26.1875 C-11.92738281 25.66542969 -12.54226563 25.14335938 -13.17578125 24.60546875 C-14.85424679 23.12827531 -16.43882034 21.59960869 -18 20 C-16.5735422 16.7413364 -14.83295838 14.5975146 -12.3046875 12.109375 C-11.23154297 11.04589844 -11.23154297 11.04589844 -10.13671875 9.9609375 C-9.39035156 9.23132813 -8.64398438 8.50171875 -7.875 7.75 C-7.12089844 7.00492188 -6.36679687 6.25984375 -5.58984375 5.4921875 C-3.73099228 3.6568658 -1.86762995 1.8263809 0 0 Z " fill="#C2E338" transform="translate(311,543)"/>
<path d="M0 0 C3.30118794 0.5805321 4.91134076 1.54868099 7.234375 3.94140625 C7.80800781 4.52470703 8.38164063 5.10800781 8.97265625 5.70898438 C9.55917969 6.32064453 10.14570312 6.93230469 10.75 7.5625 C11.35199219 8.17802734 11.95398438 8.79355469 12.57421875 9.42773438 C14.05634381 10.94514813 15.5290967 12.47170596 17 14 C15.68 14.33 14.36 14.66 13 15 C8 9.25 8 9.25 8 7 C6.68 7 5.36 7 4 7 C4 6.01 4 5.02 4 4 C-1.74546847 6.06836865 -4.88614543 8.48479377 -9 13 C-9.66 12.67 -10.32 12.34 -11 12 C-10.37351562 11.38511719 -9.74703125 10.77023437 -9.1015625 10.13671875 C-8.28429687 9.32847656 -7.46703125 8.52023437 -6.625 7.6875 C-5.40683594 6.48673828 -5.40683594 6.48673828 -4.1640625 5.26171875 C-1.87395158 2.99990063 -1.87395158 2.99990063 0 0 Z " fill="#BCDC38" transform="translate(559,294)"/>
<path d="M0 0 C0.99 0.33 1.98 0.66 3 1 C-4.26 8.26 -11.52 15.52 -19 23 C-19.66 21.68 -20.32 20.36 -21 19 C-19.68 19 -18.36 19 -17 19 C-17 17.35 -17 15.7 -17 14 C-16.01 14.33 -15.02 14.66 -14 15 C-14 14.01 -14 13.02 -14 12 C-12.68 12 -11.36 12 -10 12 C-10 10.68 -10 9.36 -10 8 C-8.68 8 -7.36 8 -6 8 C-5.34 6.02 -4.68 4.04 -4 2 C-2.68 2 -1.36 2 0 2 C0 1.34 0 0.68 0 0 Z " fill="#B3D630" transform="translate(589,493)"/>
<path d="M0 0 C0.33 0.66 0.66 1.32 1 2 C0.0625 4.125 0.0625 4.125 -1 6 C-1.66 6 -2.32 6 -3 6 C-3.2475 6.61875 -3.495 7.2375 -3.75 7.875 C-5.20628639 10.35068687 -6.37812506 10.95125002 -9 12 C-9 12.66 -9 13.32 -9 14 C-12.09007389 17.61980085 -14.17965738 19.58682778 -19 20 C-13.17371096 12.84198775 -6.5617015 6.47408234 0 0 Z " fill="#C1E52C" transform="translate(397,302)"/>
<path d="M0 0 C0 3 0 3 -1.91186523 5.22070312 C-2.78528564 6.06568359 -3.65870605 6.91066406 -4.55859375 7.78125 C-5.02233902 8.23600708 -5.48608429 8.69076416 -5.96388245 9.15930176 C-7.44815319 10.61351807 -8.94188233 12.0574627 -10.4375 13.5 C-11.92867627 14.94335289 -13.41751077 16.38883659 -14.90040588 17.84069824 C-16.24771612 19.15917519 -17.6030482 20.46943985 -18.95874023 21.77929688 C-21.19769627 23.91110116 -21.19769627 23.91110116 -22 27 C-24.4375 28.75 -24.4375 28.75 -27 30 C-27.66 29.67 -28.32 29.34 -29 29 C-19.43 19.43 -9.86 9.86 0 0 Z " fill="#142000" transform="translate(522,563)"/>
<path d="M0 0 C1.8125 2.0625 1.8125 2.0625 3 4 C-0.10551666 4 -1.35261084 3.4606285 -4 2 C-4.71027344 2.721875 -5.42054688 3.44375 -6.15234375 4.1875 C-7.53099609 5.5796875 -7.53099609 5.5796875 -8.9375 7 C-10.31228516 8.3921875 -10.31228516 8.3921875 -11.71484375 9.8125 C-14 12 -14 12 -15 12 C-15 10.35 -15 8.7 -15 7 C-13.35 6.67 -11.7 6.34 -10 6 C-10 4.68 -10 3.36 -10 2 C-9.34 2 -8.68 2 -8 2 C-8 1.34 -8 0.68 -8 0 C-4.64106891 -1.1196437 -3.32285646 -1.07992835 0 0 Z " fill="#C1E629" transform="translate(411,522)"/>
<path d="M0 0 C1.32 0.66 2.64 1.32 4 2 C1.88094537 4.17277714 -0.24472878 6.33826908 -2.375 8.5 C-2.97828125 9.12003906 -3.5815625 9.74007812 -4.203125 10.37890625 C-4.78320312 10.96542969 -5.36328125 11.55195312 -5.9609375 12.15625 C-6.49509277 12.70087891 -7.02924805 13.24550781 -7.57958984 13.80664062 C-9 15 -9 15 -11 15 C-12.38938077 13.03852126 -13.7260411 11.03833424 -15 9 C-12.03 9.33 -9.06 9.66 -6 10 C-6 8.68 -6 7.36 -6 6 C-5.01 6 -4.02 6 -3 6 C-3 5.34 -3 4.68 -3 4 C-2.01 4 -1.02 4 0 4 C0 2.68 0 1.36 0 0 Z " fill="#BADD33" transform="translate(495,585)"/>
<path d="M0 0 C4.34415669 0.48268408 6.21227649 1.65473178 9 5 C9.433125 5.78375 9.86625 6.5675 10.3125 7.375 C12.26398462 10.41064274 14.4985886 12.31245128 17.28125 14.5703125 C18.95709535 15.96431113 20.48279652 17.43654031 22 19 C21.67 19.99 21.34 20.98 21 22 C18.00611124 19.03075698 15.01546454 16.05829855 12.02783203 13.08276367 C11.01017212 12.0701449 9.99161821 11.05842377 8.97216797 10.04760742 C7.51035593 8.5978706 6.05174758 7.14497792 4.59375 5.69140625 C3.71396484 4.81685791 2.83417969 3.94230957 1.92773438 3.04125977 C0 1 0 1 0 0 Z " fill="#020900" transform="translate(542,428)"/>
<path d="M0 0 C2.25 0.125 2.25 0.125 5 1 C7.125 3.875 7.125 3.875 9 7 C11.14857897 9.59619959 12.67555856 10.42682044 16 11 C16 12.32 16 13.64 16 15 C17.32 14.67 18.64 14.34 20 14 C20 15.98 20 17.96 20 20 C15.07809171 15.99379558 10.55349248 11.66383798 6.0625 7.1875 C5.47057861 6.60009033 4.87865723 6.01268066 4.26879883 5.4074707 C0 1.12370457 0 1.12370457 0 0 Z " fill="#C1E72D" transform="translate(307,576)"/>
<path d="M0 0 C4.01987409 2.00993705 6.14516995 3.93846389 9.25 7.125 C10.14203125 8.03507812 11.0340625 8.94515625 11.953125 9.8828125 C12.62859375 10.58148438 13.3040625 11.28015625 14 12 C13.01 12.33 12.02 12.66 11 13 C10.61328125 12.51789063 10.2265625 12.03578125 9.828125 11.5390625 C9.30734375 10.90742188 8.7865625 10.27578125 8.25 9.625 C7.73953125 8.99851562 7.2290625 8.37203125 6.703125 7.7265625 C4.91800519 5.91687682 3.32050356 4.99882545 1 4 C0.4225 4.680625 -0.155 5.36125 -0.75 6.0625 C-1.4925 6.701875 -2.235 7.34125 -3 8 C-4.32 7.67 -5.64 7.34 -7 7 C-4.69 4.69 -2.38 2.38 0 0 Z " fill="#C5E638" transform="translate(405,294)"/>
<path d="M0 0 C1.98 0 3.96 0 6 0 C0.72898586 6.41069287 -5.09128152 12.18590512 -11 18 C-11 14.79604584 -10.25664978 12.90600261 -9 10 C-8.34 10 -7.68 10 -7 10 C-7 9.34 -7 8.68 -7 8 C-6.360625 7.87625 -5.72125 7.7525 -5.0625 7.625 C-4.381875 7.41875 -3.70125 7.2125 -3 7 C-2.67 6.34 -2.34 5.68 -2 5 C-1.34 5 -0.68 5 0 5 C0 3.35 0 1.7 0 0 Z " fill="#C4E832" transform="translate(578,346)"/>
<path d="M0 0 C3.58724724 1.33240612 6.91649289 2.70939472 10 5 C10 6.32 10 7.64 10 9 C11.98 9.66 13.96 10.32 16 11 C16 12.32 16 13.64 16 15 C16.66 15.33 17.32 15.66 18 16 C15 16 15 16 13.2824707 14.63891602 C12.66976318 14.01686279 12.05705566 13.39480957 11.42578125 12.75390625 C10.75869141 12.08166016 10.09160156 11.40941406 9.40429688 10.71679688 C8.71400391 10.00587891 8.02371094 9.29496094 7.3125 8.5625 C6.2596582 7.50192383 6.2596582 7.50192383 5.18554688 6.41992188 C0 1.15374453 0 1.15374453 0 0 Z " fill="#AFCF31" transform="translate(443,406)"/>
<path d="M0 0 C4.01860951 1.37780897 6.76798482 3.26521793 10 6 C10.763125 6.495 11.52625 6.99 12.3125 7.5 C13.1478125 8.2425 13.1478125 8.2425 14 9 C14 10.32 14 11.64 14 13 C14.99 13.33 15.98 13.66 17 14 C16.34 14.66 15.68 15.32 15 16 C12.49599357 13.5248518 9.99748094 11.04423106 7.5 8.5625 C6.78457031 7.85544922 6.06914062 7.14839844 5.33203125 6.41992188 C4.65527344 5.74638672 3.97851562 5.07285156 3.28125 4.37890625 C2.65283203 3.7557251 2.02441406 3.13254395 1.37695312 2.49047852 C0 1 0 1 0 0 Z " fill="#AECC38" transform="translate(427,390)"/>
<path d="M0 0 C1.32 0 2.64 0 4 0 C4 0.66 4 1.32 4 2 C5.32 2 6.64 2 8 2 C8.33 3.98 8.66 5.96 9 8 C9.99 8.33 10.98 8.66 12 9 C12 9.66 12 10.32 12 11 C12.639375 11.268125 13.27875 11.53625 13.9375 11.8125 C16 13 16 13 17 16 C17.66 16 18.32 16 19 16 C18.67 16.99 18.34 17.98 18 19 C18 18.34 18 17.68 18 17 C17.01 16.67 16.02 16.34 15 16 C12.3125 13.5625 12.3125 13.5625 10 11 C10 10.34 10 9.68 10 9 C9.360625 8.731875 8.72125 8.46375 8.0625 8.1875 C6 7 6 7 5 4 C3.68352881 3.30062468 2.34977849 2.63270867 1 2 C0.67 1.34 0.34 0.68 0 0 Z " fill="#AECE32" transform="translate(483,446)"/>
<path d="M0 0 C0 4.31618166 -2.13270348 5.92789659 -5 9 C-5.66 9 -6.32 9 -7 9 C-7.24492188 9.58265625 -7.48984375 10.1653125 -7.7421875 10.765625 C-9.20435874 13.36302236 -10.84740414 14.83975831 -13.125 16.75 C-14.21167969 17.67039062 -14.21167969 17.67039062 -15.3203125 18.609375 C-15.87460937 19.06828125 -16.42890625 19.5271875 -17 20 C-17.66 19.67 -18.32 19.34 -19 19 C-18.195625 18.236875 -17.39125 17.47375 -16.5625 16.6875 C-13.83200976 14.20569102 -13.83200976 14.20569102 -13 11 C-11.68 11 -10.36 11 -9 11 C-8.74476563 10.41734375 -8.48953125 9.8346875 -8.2265625 9.234375 C-6.88258913 6.78611777 -5.38189704 5.18256752 -3.375 3.25 C-2.74335937 2.63640625 -2.11171875 2.0228125 -1.4609375 1.390625 C-0.73777344 0.70226562 -0.73777344 0.70226562 0 0 Z " fill="#C8F514" transform="translate(524,332)"/>
<path d="M0 0 C1.32 0.33 2.64 0.66 4 1 C-0.95 5.95 -5.9 10.9 -11 16 C-11.33 14.68 -11.66 13.36 -12 12 C-11.01 12 -10.02 12 -9 12 C-8.34 10.68 -7.68 9.36 -7 8 C-6.34 8 -5.68 8 -5 8 C-4.67 6.02 -4.34 4.04 -4 2 C-2.68 2.33 -1.36 2.66 0 3 C0 2.01 0 1.02 0 0 Z " fill="#C2E52F" transform="translate(389,537)"/>
<path d="M0 0 C2.93879484 1.35236577 5.29232911 2.89942659 7.75 5 C8.67039062 5.7734375 8.67039062 5.7734375 9.609375 6.5625 C11 8 11 8 11 10 C11.99 9.67 12.98 9.34 14 9 C14.33 10.98 14.66 12.96 15 15 C15.66 15 16.32 15 17 15 C17 15.66 17 16.32 17 17 C17.66 17.33 18.32 17.66 19 18 C18.01 18 17.02 18 16 18 C16 17.34 16 16.68 16 16 C15.40219727 15.73195557 14.80439453 15.46391113 14.18847656 15.18774414 C11.97760321 13.98784467 10.66962594 12.8422608 8.984375 10.99609375 C8.45585938 10.42052734 7.92734375 9.84496094 7.3828125 9.25195312 C6.84398437 8.65318359 6.30515625 8.05441406 5.75 7.4375 C5.19570313 6.83486328 4.64140625 6.23222656 4.0703125 5.61132812 C0 1.14501232 0 1.14501232 0 0 Z " fill="#B3D232" transform="translate(542,504)"/>
<path d="M0 0 C3.36335594 1.45745424 5.54534005 3.31117854 8.109375 5.9140625 C8.86347656 6.67460937 9.61757813 7.43515625 10.39453125 8.21875 C11.17183594 9.0128125 11.94914062 9.806875 12.75 10.625 C13.54277344 11.42679687 14.33554687 12.22859375 15.15234375 13.0546875 C17.10614493 15.03202846 19.05512103 17.01388909 21 19 C16.08173023 19 13.09178453 15.00559102 9.625 11.8125 C8 10 8 10 8 8 C7.360625 7.896875 6.72125 7.79375 6.0625 7.6875 C5.381875 7.460625 4.70125 7.23375 4 7 C3.67 6.01 3.34 5.02 3 4 C2.01 3.34 1.02 2.68 0 2 C0 1.34 0 0.68 0 0 Z " fill="#020A00" transform="translate(388,353)"/>
<path d="M0 0 C2.475 0.99 2.475 0.99 5 2 C5 2.66 5 3.32 5 4 C5.556875 4.226875 6.11375 4.45375 6.6875 4.6875 C9.6469509 6.36718835 11.66126784 8.54133285 14 11 C14.598125 11.598125 15.19625 12.19625 15.8125 12.8125 C16.204375 13.204375 16.59625 13.59625 17 14 C16.67 14.99 16.34 15.98 16 17 C13.32932797 14.3581833 10.66414667 11.7108958 8 9.0625 C7.236875 8.30775391 6.47375 7.55300781 5.6875 6.77539062 C4.965625 6.05673828 4.24375 5.33808594 3.5 4.59765625 C2.8296875 3.93258057 2.159375 3.26750488 1.46875 2.58227539 C0 1 0 1 0 0 Z " fill="#B1D139" transform="translate(402,365)"/>
<path d="M0 0 C4.56030824 3.80475422 8.85089392 7.74969621 13 12 C11.25 15.875 11.25 15.875 9 17 C8.814375 16.01 8.62875 15.02 8.4375 14 C7.23289203 9.61879619 4.55911778 6.91753255 1.4609375 3.69921875 C0 2 0 2 0 0 Z " fill="#B4D33C" transform="translate(510,549)"/>
<path d="M0 0 C0 3 0 3 -1.6796875 4.71875 C-2.76636719 5.60046875 -2.76636719 5.60046875 -3.875 6.5 C-6.48194454 8.63040629 -8.10668572 10.16002857 -10 13 C-11.65532623 14.01866229 -13.32260138 15.01810813 -15 16 C-16.75149165 17.58245275 -16.75149165 17.58245275 -18 19 C-18.66 18.67 -19.32 18.34 -20 18 C-18.44395612 16.38957012 -16.87987244 14.78690632 -15.3125 13.1875 C-14.44238281 12.29417969 -13.57226562 11.40085937 -12.67578125 10.48046875 C-10.21321011 8.19764733 -7.89503055 6.65981752 -5 5 C-3.2958946 3.37163262 -1.61974559 1.71230248 0 0 Z " fill="#C6EB2C" transform="translate(332,524)"/>
<path d="M0 0 C0.66 0.66 1.32 1.32 2 2 C-2.71890538 7.40052505 -7.30358857 12.61814505 -13 17 C-13 14 -13 14 -11.42578125 12.16796875 C-10.72839844 11.51441406 -10.03101563 10.86085938 -9.3125 10.1875 C-5.94109659 6.94783882 -2.91888895 3.64861118 0 0 Z " fill="#162103" transform="translate(337,513)"/>
<path d="M0 0 C1.32 0.33 2.64 0.66 4 1 C4 1.66 4 2.32 4 3 C4.57234375 3.24492187 5.1446875 3.48984375 5.734375 3.7421875 C8.38024402 5.21110099 10.14853139 6.95348244 12.25 9.125 C12.95640625 9.84945313 13.6628125 10.57390625 14.390625 11.3203125 C15.18726563 12.15175781 15.18726563 12.15175781 16 13 C15.67 13.99 15.34 14.98 15 16 C12.49599357 13.5248518 9.99748094 11.04423106 7.5 8.5625 C6.78457031 7.85544922 6.06914062 7.14839844 5.33203125 6.41992188 C4.65527344 5.74638672 3.97851562 5.07285156 3.28125 4.37890625 C2.65283203 3.7557251 2.02441406 3.13254395 1.37695312 2.49047852 C0 1 0 1 0 0 Z " fill="#B6D53A" transform="translate(373,336)"/>
<path d="M0 0 C0.66 0 1.32 0 2 0 C1.47585829 4.08081763 -0.61118856 5.95260664 -3.5 8.75 C-4.72203125 9.94882812 -4.72203125 9.94882812 -5.96875 11.171875 C-8 13 -8 13 -9 13 C-8.67 10.69 -8.34 8.38 -8 6 C-6.68 6 -5.36 6 -4 6 C-4 5.34 -4 4.68 -4 4 C-3.34 4 -2.68 4 -2 4 C-2 3.34 -2 2.68 -2 2 C-1.34 2 -0.68 2 0 2 C0 1.34 0 0.68 0 0 Z " fill="#C4EA2B" transform="translate(593,333)"/>
<path d="M0 0 C0 0.99 0 1.98 0 3 C-0.99 3.495 -0.99 3.495 -2 4 C-2.2475 4.598125 -2.495 5.19625 -2.75 5.8125 C-4.51231152 8.89654517 -7.01059522 10.18036231 -10 12 C-10.66 11.67 -11.32 11.34 -12 11 C-10.37807179 9.35113941 -8.75236228 7.7059976 -7.125 6.0625 C-6.22007812 5.14597656 -5.31515625 4.22945313 -4.3828125 3.28515625 C-2 1 -2 1 0 0 Z M-13 12 C-12.67 12.66 -12.34 13.32 -12 14 C-12.66 13.67 -13.32 13.34 -14 13 C-13.67 12.67 -13.34 12.34 -13 12 Z M-18 17 C-18 17.99 -18 18.98 -18 20 C-18.66 19.67 -19.32 19.34 -20 19 C-19.34 18.34 -18.68 17.68 -18 17 Z " fill="#010800" transform="translate(594,492)"/>
<path d="M0 0 C2.96175123 0.61277612 4.38058783 1.25372522 7 3 C7 3.66 7 4.32 7 5 C7.66 5 8.32 5 9 5 C10.36363208 6.97946592 11.69418644 8.9819245 13 11 C14.62351109 12.79394446 14.62351109 12.79394446 16 14 C15.67 14.66 15.34 15.32 15 16 C12.49599357 13.5248518 9.99748094 11.04423106 7.5 8.5625 C6.78457031 7.85544922 6.06914062 7.14839844 5.33203125 6.41992188 C4.65527344 5.74638672 3.97851562 5.07285156 3.28125 4.37890625 C2.65283203 3.7557251 2.02441406 3.13254395 1.37695312 2.49047852 C0 1 0 1 0 0 Z " fill="#C1E339" transform="translate(302,416)"/>
<path d="M0 0 C0.33 1.32 0.66 2.64 1 4 C0.34 4 -0.32 4 -1 4 C-1 4.66 -1 5.32 -1 6 C-1.66 6 -2.32 6 -3 6 C-3.66 7.32 -4.32 8.64 -5 10 C-5.66 10 -6.32 10 -7 10 C-7 10.66 -7 11.32 -7 12 C-8.65 12.33 -10.3 12.66 -12 13 C-8.19524578 8.43969176 -4.25030379 4.14910608 0 0 Z " fill="#BCE02F" transform="translate(316,383)"/>
<path d="M0 0 C1.32 0.33 2.64 0.66 4 1 C0.37 4.63 -3.26 8.26 -7 12 C-8.32 10.68 -9.64 9.36 -11 8 C-9.02 8 -7.04 8 -5 8 C-5 7.01 -5 6.02 -5 5 C-4.01 5 -3.02 5 -2 5 C-1.34 3.35 -0.68 1.7 0 0 Z " fill="#C2E339" transform="translate(338,588)"/>
<path d="M0 0 C0.33 0.66 0.66 1.32 1 2 C-3.66666667 7.33333333 -8.33333333 12.66666667 -13 18 C-14.32 17.67 -15.64 17.34 -17 17 C-16.10796875 16.19175781 -15.2159375 15.38351562 -14.296875 14.55078125 C-13.11440837 13.47154583 -11.93212646 12.392108 -10.75 11.3125 C-10.16347656 10.78205078 -9.57695313 10.25160156 -8.97265625 9.70507812 C-5.6562268 6.66812306 -2.70856629 3.61365652 0 0 Z " fill="#B5D43C" transform="translate(528,325)"/>
<path d="M0 0 C1.32 0.33 2.64 0.66 4 1 C2.35718838 2.66964521 0.71067239 4.3356464 -0.9375 6 C-1.85402344 6.928125 -2.77054687 7.85625 -3.71484375 8.8125 C-6 11 -6 11 -7 11 C-7 9.35 -7 7.7 -7 6 C-6.401875 5.7525 -5.80375 5.505 -5.1875 5.25 C-2.71352479 3.83629988 -1.56629745 2.34944617 0 0 Z " fill="#182203" transform="translate(310,540)"/>
<path d="M0 0 C5.66129431 4.69766975 10.85228904 9.74723372 16 15 C11.71464033 15 10.15057301 12.7483722 7 10 C6.34 9.67 5.68 9.34 5 9 C5 8.34 5 7.68 5 7 C4.34 7 3.68 7 3 7 C0 2.61538462 0 2.61538462 0 0 Z " fill="#C6E83F" transform="translate(448,336)"/>
<path d="M0 0 C1.65 0 3.3 0 5 0 C5 0.99 5 1.98 5 3 C5.66 3 6.32 3 7 3 C8.36363208 4.97946592 9.69418644 6.9819245 11 9 C12.62351109 10.79394446 12.62351109 10.79394446 14 12 C13.67 12.66 13.34 13.32 13 14 C10.83031809 11.85714108 8.66416525 9.71091768 6.5 7.5625 C5.87996094 6.95083984 5.25992187 6.33917969 4.62109375 5.70898438 C4.03457031 5.12568359 3.44804687 4.54238281 2.84375 3.94140625 C2.02680664 3.13231812 2.02680664 3.13231812 1.19335938 2.30688477 C0 1 0 1 0 0 Z " fill="#C2E438" transform="translate(352,466)"/>
<path d="M0 0 C1.32 0.33 2.64 0.66 4 1 C4 1.66 4 2.32 4 3 C4.99 3 5.98 3 7 3 C7.33 4.32 7.66 5.64 8 7 C8.99 7 9.98 7 11 7 C12.75 9.375 12.75 9.375 14 12 C13.67 12.66 13.34 13.32 13 14 C10.83031809 11.85714108 8.66416525 9.71091768 6.5 7.5625 C5.87996094 6.95083984 5.25992187 6.33917969 4.62109375 5.70898438 C4.03457031 5.12568359 3.44804687 4.54238281 2.84375 3.94140625 C2.02680664 3.13231812 2.02680664 3.13231812 1.19335938 2.30688477 C0 1 0 1 0 0 Z " fill="#C1E339" transform="translate(320,434)"/>
<path d="M0 0 C4.29718953 1.38914475 6.70687757 3.38031985 9.8125 6.625 C10.99779297 7.85089844 10.99779297 7.85089844 12.20703125 9.1015625 C12.79871094 9.72804688 13.39039063 10.35453125 14 11 C13.34 11.66 12.68 12.32 12 13 C9.99698146 11.0238076 7.99750133 9.04425526 6 7.0625 C5.42765625 6.49853516 4.8553125 5.93457031 4.265625 5.35351562 C2.82474495 3.92121224 1.41012857 2.46258871 0 1 C0 0.67 0 0.34 0 0 Z " fill="#B8D836" transform="translate(389,352)"/>
<path d="M0 0 C0.33 0.99 0.66 1.98 1 3 C0.175 3.515625 -0.65 4.03125 -1.5 4.5625 C-4.40072402 6.85789852 -4.40072402 6.85789852 -4.3125 10.75 C-4.209375 11.8225 -4.10625 12.895 -4 14 C-5.65 12.68 -7.3 11.36 -9 10 C-7.61811547 6.78956118 -6.07578097 4.95063635 -3.375 2.75 C-2.74335938 2.22921875 -2.11171875 1.7084375 -1.4609375 1.171875 C-0.73777344 0.59179688 -0.73777344 0.59179688 0 0 Z " fill="#B8D639" transform="translate(377,322)"/>
<path d="M0 0 C4.00119454 2.15285512 6.69922378 4.59062543 9.6875 8 C10.45449219 8.86625 11.22148437 9.7325 12.01171875 10.625 C14 13 14 13 16 16 C12.84164893 14.60249952 10.67727175 12.94801766 8.25 10.5 C7.63640625 9.8915625 7.0228125 9.283125 6.390625 8.65625 C5 7 5 7 5 5 C4.01 5 3.02 5 2 5 C1.34 3.35 0.68 1.7 0 0 Z " fill="#BBDA41" transform="translate(464,352)"/>
<path d="M0 0 C2.475 0.495 2.475 0.495 5 1 C5 1.66 5 2.32 5 3 C5.66 3 6.32 3 7 3 C7 3.66 7 4.32 7 5 C7.99 4.67 8.98 4.34 10 4 C10 5.98 10 7.96 10 10 C2.51708428 3.84965831 2.51708428 3.84965831 0 0 Z " fill="#C3E732" transform="translate(342,456)"/>
<path d="M0 0 C0.99 0.33 1.98 0.66 3 1 C-0.66666667 4.66666667 -4.33333333 8.33333333 -8 12 C-8.33 11.01 -8.66 10.02 -9 9 C-7.890625 7.17578125 -7.890625 7.17578125 -6.25 5.3125 C-5.71890625 4.68988281 -5.1878125 4.06726563 -4.640625 3.42578125 C-3 2 -3 2 0 2 C0 1.34 0 0.68 0 0 Z " fill="#172103" transform="translate(300,551)"/>
<path d="M0 0 C0.66 0.33 1.32 0.66 2 1 C1.55269531 1.43570312 1.10539062 1.87140625 0.64453125 2.3203125 C-3.14521536 6.05349573 -6.66459583 9.856013 -10 14 C-10.99 13.67 -11.98 13.34 -13 13 C-12.01 12.67 -11.02 12.34 -10 12 C-9.7834375 11.09314453 -9.7834375 11.09314453 -9.5625 10.16796875 C-8.79819518 7.22221058 -7.32446009 6.22602875 -5 4.3125 C-4.278125 3.71050781 -3.55625 3.10851562 -2.8125 2.48828125 C-2.214375 1.99714844 -1.61625 1.50601562 -1 1 C-0.67 0.67 -0.34 0.34 0 0 Z " fill="#C9F612" transform="translate(353,503)"/>
<path d="M0 0 C2.53449833 1.91799874 4.72226007 3.62611932 6.625 6.1875 C7.95882513 8.29998833 7.95882513 8.29998833 11 9 C12.75 11.4375 12.75 11.4375 14 14 C13.67 14.66 13.34 15.32 13 16 C10.82404478 13.90474642 8.65936733 11.79972937 6.5 9.6875 C5.87996094 9.09259766 5.25992187 8.49769531 4.62109375 7.88476562 C4.03457031 7.30791016 3.44804687 6.73105469 2.84375 6.13671875 C2.02680664 5.34334106 2.02680664 5.34334106 1.19335938 4.53393555 C0 3 0 3 0 0 Z " fill="#010900" transform="translate(335,371)"/>
<path d="M0 0 C0.33 0.99 0.66 1.98 1 3 C-2.96 6.96 -6.92 10.92 -11 15 C-11.99 14.67 -12.98 14.34 -14 14 C-13.15695312 13.24074219 -12.31390625 12.48148437 -11.4453125 11.69921875 C-10.33838791 10.69548204 -9.23162553 9.69156642 -8.125 8.6875 C-7.56941406 8.18798828 -7.01382812 7.68847656 -6.44140625 7.17382812 C-3.93211977 4.8912844 -1.89093222 2.83639832 0 0 Z " fill="#B8D83E" transform="translate(510,343)"/>
<path d="M0 0 C0.99 0.33 1.98 0.66 3 1 C-0.96 4.96 -4.92 8.92 -9 13 C-9.33 12.01 -9.66 11.02 -10 10 C-9 8 -9 8 -6.6875 6.6875 C-3.72100615 4.82481781 -2.05155106 2.81138478 0 0 Z " fill="#C6E839" transform="translate(538,389)"/>
<path d="M0 0 C0.33 0.66 0.66 1.32 1 2 C-2.75 7.75 -2.75 7.75 -5 10 C-6.32 9.67 -7.64 9.34 -9 9 C-6.03 6.03 -3.06 3.06 0 0 Z " fill="#BCDE30" transform="translate(326,373)"/>
<path d="M0 0 C1.32 0.33 2.64 0.66 4 1 C1.03 3.97 -1.94 6.94 -5 10 C-6 7 -6 7 -5 4 C-3.66666667 3.66666667 -2.33333333 3.33333333 -1 3 C-0.67 2.01 -0.34 1.02 0 0 Z " fill="#C2E532" transform="translate(361,565)"/>
<path d="M0 0 C4.52615993 3.67832017 8.39424999 7.41086363 12 12 C8.83987387 11.66141506 8.04567887 11.05398412 5.9375 8.5625 C5.298125 7.716875 4.65875 6.87125 4 6 C3.01 5.34 2.02 4.68 1 4 C1 3.34 1 2.68 1 2 C0.34 1.67 -0.32 1.34 -1 1 C-0.67 0.67 -0.34 0.34 0 0 Z " fill="#020A00" transform="translate(369,333)"/>
<path d="M0 0 C5.45018742 2.64251511 10.28095316 7.56190631 13 13 C9.18063472 11.44396229 6.73955562 9.04395069 4 6 C4 5.34 4 4.68 4 4 C2.68 4 1.36 4 0 4 C0 2.68 0 1.36 0 0 Z " fill="#BFE03F" transform="translate(419,307)"/>
<path d="M0 0 C2.25 0.125 2.25 0.125 5 1 C7.125 3.875 7.125 3.875 9 7 C10.62351109 8.79394446 10.62351109 8.79394446 12 10 C11.67 10.66 11.34 11.32 11 12 C9.16364422 10.19047409 7.33083792 8.37759362 5.5 6.5625 C4.97535156 6.04623047 4.45070313 5.52996094 3.91015625 4.99804688 C2.58775448 3.68423213 1.29164432 2.34406495 0 1 C0 0.67 0 0.34 0 0 Z " fill="#C0E23C" transform="translate(307,576)"/>
<path d="M0 0 C1.14926266 0.95421808 2.29430541 1.91352045 3.4375 2.875 C4.07558594 3.40867187 4.71367188 3.94234375 5.37109375 4.4921875 C7 6 7 6 8 8 C5.69 7.67 3.38 7.34 1 7 C0 2.25 0 2.25 0 0 Z " fill="#BEE22F" transform="translate(584,471)"/>
<path d="M0 0 C1.32 0 2.64 0 4 0 C4 0.99 4 1.98 4 3 C5.65 3.33 7.3 3.66 9 4 C9 5.65 9 7.3 9 9 C7.87105124 8.06725891 6.74699124 7.12859878 5.625 6.1875 C4.99851562 5.66542969 4.37203125 5.14335937 3.7265625 4.60546875 C2 3 2 3 0 0 Z " fill="#A8C82D" transform="translate(474,437)"/>
<path d="M0 0 C1.14926266 0.95421808 2.29430541 1.91352045 3.4375 2.875 C4.07558594 3.40867187 4.71367188 3.94234375 5.37109375 4.4921875 C7 6 7 6 8 8 C6.35 8 4.7 8 3 8 C3 7.34 3 6.68 3 6 C2.34 6 1.68 6 1 6 C0.67 4.02 0.34 2.04 0 0 Z " fill="#BEE133" transform="translate(552,439)"/>
<path d="M0 0 C1.12894876 0.93274109 2.25300876 1.87140122 3.375 2.8125 C4.00148438 3.33457031 4.62796875 3.85664063 5.2734375 4.39453125 C7 6 7 6 9 9 C8.01 9.495 8.01 9.495 7 10 C7 9.34 7 8.68 7 8 C6.01 7.67 5.02 7.34 4 7 C3.34 6.01 2.68 5.02 2 4 C-0.58380177 3.74969023 -0.58380177 3.74969023 -3 4 C-2.01 2.68 -1.02 1.36 0 0 Z " fill="#B3D045" transform="translate(330,369)"/>
<path d="M0 0 C2.31 0.33 4.62 0.66 7 1 C7.66666667 3.66666667 8.33333333 6.33333333 9 9 C7.87105124 8.06725891 6.74699124 7.12859878 5.625 6.1875 C4.99851562 5.66542969 4.37203125 5.14335937 3.7265625 4.60546875 C2 3 2 3 0 0 Z " fill="#040C00" transform="translate(463,501)"/>
<path d="M0 0 C1.98 1.65 3.96 3.3 6 5 C5.60196439 7.88575819 5.20990931 8.82189513 2.9375 10.75 C2.298125 11.1625 1.65875 11.575 1 12 C1.391875 11.0925 1.78375 10.185 2.1875 9.25 C2.455625 8.1775 2.72375 7.105 3 6 C1.71649673 3.73242436 1.71649673 3.73242436 0 2 C0 1.34 0 0.68 0 0 Z " fill="#BEDD42" transform="translate(592,479)"/>
<path d="M0 0 C1.14926266 0.95421808 2.29430541 1.91352045 3.4375 2.875 C4.07558594 3.40867187 4.71367188 3.94234375 5.37109375 4.4921875 C7 6 7 6 8 8 C5.6875 8.3125 5.6875 8.3125 3 8 C0.75756777 5.13896577 0 3.65923696 0 0 Z " fill="#BCDD35" transform="translate(576,463)"/>
<path d="M0 0 C1.32 0.33 2.64 0.66 4 1 C1.36 3.64 -1.28 6.28 -4 9 C-4.33 8.01 -4.66 7.02 -5 6 C-3.625 4.5 -3.625 4.5 -2 3 C-1.34 3 -0.68 3 0 3 C0 2.01 0 1.02 0 0 Z " fill="#BCDE34" transform="translate(511,570)"/>
<path d="M0 0 C1.17539996 0.92652701 2.34010577 1.86663387 3.5 2.8125 C4.1496875 3.33457031 4.799375 3.85664063 5.46875 4.39453125 C7 6 7 6 7 9 C1.21538462 5.67692308 1.21538462 5.67692308 0.125 2.25 C0.08375 1.5075 0.0425 0.765 0 0 Z " fill="#222C07" transform="translate(527,490)"/>
<path d="M0 0 C1.32 0 2.64 0 4 0 C4 0.66 4 1.32 4 2 C4.66 2 5.32 2 6 2 C6 2.66 6 3.32 6 4 C6.66 4 7.32 4 8 4 C7.67 5.32 7.34 6.64 7 8 C5.83035398 6.8572081 4.66435444 5.71068285 3.5 4.5625 C2.8503125 3.92441406 2.200625 3.28632813 1.53125 2.62890625 C0 1 0 1 0 0 Z " fill="#A9C72F" transform="translate(513,476)"/>
<path d="M0 0 C7.48291572 6.15034169 7.48291572 6.15034169 10 10 C8.0625 9.6875 8.0625 9.6875 6 9 C5.67 8.01 5.34 7.02 5 6 C4.34 6 3.68 6 3 6 C3 5.34 3 4.68 3 4 C2.34 4 1.68 4 1 4 C0.67 2.68 0.34 1.36 0 0 Z " fill="#BCDB3D" transform="translate(540,427)"/>
<path d="M0 0 C-2.31 2.31 -4.62 4.62 -7 7 C-8 4 -8 4 -7.25 1.875 C-5.12549708 -1.31175437 -3.46820912 -1.15606971 0 0 Z " fill="#C4E631" transform="translate(562,369)"/>
<path d="M0 0 C2.86207152 1.28299758 5.0245088 2.530636 7 5 C7 5.99 7 6.98 7 8 C6.01 8 5.02 8 4 8 C2.15473038 5.37403939 1.01624151 3.04872454 0 0 Z " fill="#BBDC36" transform="translate(439,479)"/>
<path d="M0 0 C0.33 0.99 0.66 1.98 1 3 C0.67 3.66 0.34 4.32 0 5 C-0.66 5 -1.32 5 -2 5 C-2 5.66 -2 6.32 -2 7 C-3.65 7.33 -5.3 7.66 -7 8 C-6.02133662 6.85373678 -5.04205413 5.70800212 -4.0625 4.5625 C-3.51722656 3.92441406 -2.97195313 3.28632813 -2.41015625 2.62890625 C-1.63204305 1.73008851 -0.84063472 0.84063472 0 0 Z " fill="#BDDE32" transform="translate(303,396)"/>
<path d="M0 0 C2.31 1.98 4.62 3.96 7 6 C6.01 6.33 5.02 6.66 4 7 C2.35 5.35 0.7 3.7 -1 2 C-0.67 1.34 -0.34 0.68 0 0 Z " fill="#1C2504" transform="translate(475,590)"/>
<path d="M0 0 C4.75 0.875 4.75 0.875 7 2 C7 3.65 7 5.3 7 7 C5.83040013 6.02433888 4.66438823 5.044375 3.5 4.0625 C2.8503125 3.51722656 2.200625 2.97195313 1.53125 2.41015625 C1.0259375 1.94480469 0.520625 1.47945312 0 1 C0 0.67 0 0.34 0 0 Z " fill="#C4E931" transform="translate(457,571)"/>
<path d="M0 0 C0.99 0 1.98 0 3 0 C2.67 2.31 2.34 4.62 2 7 C0.68 6.01 -0.64 5.02 -2 4 C-1.34 2.68 -0.68 1.36 0 0 Z " fill="#C3E435" transform="translate(295,559)"/>
<path d="M0 0 C2.475 0.495 2.475 0.495 5 1 C5 2.32 5 3.64 5 5 C5.66 5 6.32 5 7 5 C6.67 5.66 6.34 6.32 6 7 C3.95880212 5.38405168 1.95927063 3.7143618 0 2 C0 1.34 0 0.68 0 0 Z " fill="#B0D12C" transform="translate(535,497)"/>
<path d="M0 0 C3.79588866 0.54226981 5.47211993 2.20127563 8 5 C7.67 5.99 7.34 6.98 7 8 C5.83035398 6.8572081 4.66435444 5.71068285 3.5 4.5625 C2.8503125 3.92441406 2.200625 3.28632813 1.53125 2.62890625 C0 1 0 1 0 0 Z " fill="#C1E434" transform="translate(334,448)"/>
<path d="M0 0 C3.24208567 0.35049575 4.61527704 0.56221181 6.8125 3.0625 C7.204375 3.701875 7.59625 4.34125 8 5 C4.86248779 5 3.60242414 4.64820195 1 3 C0.67 2.01 0.34 1.02 0 0 Z " fill="#B8DA2E" transform="translate(406,521)"/>
<path d="M0 0 C1.32 0.66 2.64 1.32 4 2 C4 2.66 4 3.32 4 4 C4.66 4.33 5.32 4.66 6 5 C5.34 5.66 4.68 6.32 4 7 C2.35 5.02 0.7 3.04 -1 1 C-0.67 0.67 -0.34 0.34 0 0 Z " fill="#0F1601" transform="translate(591,475)"/>
<path d="M0 0 C2.31 0.66 4.62 1.32 7 2 C7 3.65 7 5.3 7 7 C5.83040013 6.02433888 4.66438823 5.044375 3.5 4.0625 C2.8503125 3.51722656 2.200625 2.97195313 1.53125 2.41015625 C1.0259375 1.94480469 0.520625 1.47945313 0 1 C0 0.67 0 0.34 0 0 Z " fill="#A8C62E" transform="translate(467,430)"/>
<path d="M0 0 C2.31 0.66 4.62 1.32 7 2 C7 3.65 7 5.3 7 7 C5.83040013 6.02433888 4.66438823 5.044375 3.5 4.0625 C2.8503125 3.51722656 2.200625 2.97195313 1.53125 2.41015625 C1.0259375 1.94480469 0.520625 1.47945313 0 1 C0 0.67 0 0.34 0 0 Z " fill="#A9C92F" transform="translate(460,423)"/>
<path d="M0 0 C2.4375 0.8125 2.4375 0.8125 5 2 C5.33 2.99 5.66 3.98 6 5 C6.99 5.33 7.98 5.66 9 6 C8.34 6.66 7.68 7.32 7 8 C5.83035398 6.8572081 4.66435444 5.71068285 3.5 4.5625 C2.8503125 3.92441406 2.200625 3.28632813 1.53125 2.62890625 C0 1 0 1 0 0 Z " fill="#ACC836" transform="translate(419,382)"/>
<path d="M0 0 C2.3125 0.1875 2.3125 0.1875 5 1 C6.875 3.4375 6.875 3.4375 8 6 C7.67 6.66 7.34 7.32 7 8 C5.83035398 6.8572081 4.66435444 5.71068285 3.5 4.5625 C2.8503125 3.92441406 2.200625 3.28632812 1.53125 2.62890625 C0 1 0 1 0 0 Z " fill="#C4E63E" transform="translate(468,582)"/>
<path d="M0 0 C0.99 0.33 1.98 0.66 3 1 C0.69 3.31 -1.62 5.62 -4 8 C-4.33 7.34 -4.66 6.68 -5 6 C-4.67 5.01 -4.34 4.02 -4 3 C-3.01 2.67 -2.02 2.34 -1 2 C-0.67 1.34 -0.34 0.68 0 0 Z " fill="#C4E53A" transform="translate(349,578)"/>
<path d="M0 0 C1.65 0 3.3 0 5 0 C5.33 1.98 5.66 3.96 6 6 C3.97945196 4.35830472 1.97956942 2.69088222 0 1 C0 0.67 0 0.34 0 0 Z " fill="#AACA28" transform="translate(502,465)"/>
<path d="M0 0 C2 0 2 0 4.5625 2.25 C6.88349075 4.86855367 7.38350444 5.7582031 8 9 C6.84775972 8.07038578 5.70340824 7.1309875 4.5625 6.1875 C3.60537109 5.40439453 3.60537109 5.40439453 2.62890625 4.60546875 C1 3 1 3 0 0 Z " fill="#000800" transform="translate(413,450)"/>
<path d="M0 0 C2.375 0.3125 2.375 0.3125 5 1 C5.66 1.99 6.32 2.98 7 4 C6.67 4.99 6.34 5.98 6 7 C4.02 4.69 2.04 2.38 0 0 Z " fill="#151E00" transform="translate(542,428)"/>
<path d="M0 0 C1.98 0.99 1.98 0.99 4 2 C4 3.32 4 4.64 4 6 C4.99 6.33 5.98 6.66 7 7 C6.34 7.66 5.68 8.32 5 9 C1.9083091 6.47043472 1.09068668 3.77545388 0 0 Z " fill="#B7DB28" transform="translate(437,397)"/>
<path d="M0 0 C3.91402949 1.26941497 5.79072873 2.51167694 8 6 C5 6 5 6 3.61328125 4.6875 C2.40885417 3.125 1.20442708 1.5625 0 0 Z " fill="#B2D039" transform="translate(389,352)"/>
<path d="M0 0 C1.65 1.65 3.3 3.3 5 5 C3.68 5.99 2.36 6.98 1 8 C0.67 5.36 0.34 2.72 0 0 Z " fill="#C0DD47" transform="translate(594,327)"/>
<path d="M0 0 C2.97 0.495 2.97 0.495 6 1 C6 2.65 6 4.3 6 6 C3.97945196 4.35830472 1.97956942 2.69088222 0 1 C0 0.67 0 0.34 0 0 Z " fill="#BDDF36" transform="translate(419,533)"/>
<path d="M0 0 C1.9375 0.6875 1.9375 0.6875 4 2 C4.75 4.625 4.75 4.625 5 7 C3.02 5.35 1.04 3.7 -1 2 C-0.67 1.34 -0.34 0.68 0 0 Z " fill="#131B00" transform="translate(559,443)"/>
<path d="M0 0 C2.02054804 1.64169528 4.02043058 3.30911778 6 5 C6 5.33 6 5.66 6 6 C4.35 6 2.7 6 1 6 C0.67 4.02 0.34 2.04 0 0 Z " fill="#BBDC37" transform="translate(532,419)"/>
<path d="M0 0 C2.17766075 4.35532149 2.03039555 5.46625958 1 10 C0.34 10 -0.32 10 -1 10 C-0.67 6.7 -0.34 3.4 0 0 Z " fill="#404040" transform="translate(186,333)"/>
</svg>
